<svg width="292" height="147" viewBox="0 0 292 147" fill="none" xmlns="http://www.w3.org/2000/svg">
<g opacity="0.7">
<rect x="1" y="1" width="289.5" height="145" fill="#99CC99" stroke="white" stroke-width="2"/>
<path d="M90.7578 98V83.6914H88.2441V82.3594L92.8848 81.9619V98H90.7578ZM102.23 98C102.438 96.7611 102.732 95.6904 103.111 94.7881C103.498 93.8857 104.178 92.6468 105.152 91.0713L109.492 84.0889H101.307V82.1016H111.512V84.0889C107.437 90.0973 105.156 94.7344 104.669 98H102.23ZM115.916 86.4736C115.25 86.4736 114.684 86.2409 114.219 85.7754C113.76 85.3099 113.531 84.7441 113.531 84.0781C113.531 83.4121 113.76 82.8499 114.219 82.3916C114.684 81.9333 115.25 81.7041 115.916 81.7041C116.582 81.7041 117.144 81.9368 117.603 82.4023C118.068 82.8607 118.301 83.4193 118.301 84.0781C118.301 84.7441 118.068 85.3099 117.603 85.7754C117.144 86.2409 116.582 86.4736 115.916 86.4736ZM115.916 85.4102C116.274 85.4102 116.582 85.2777 116.84 85.0127C117.105 84.7477 117.237 84.4398 117.237 84.0889C117.237 83.7308 117.105 83.4193 116.84 83.1543C116.582 82.8893 116.274 82.7568 115.916 82.7568C115.565 82.7568 115.257 82.8893 114.992 83.1543C114.727 83.4193 114.595 83.7308 114.595 84.0889C114.595 84.4398 114.727 84.7477 114.992 85.0127C115.257 85.2777 115.565 85.4102 115.916 85.4102ZM132.942 97.1836C131.374 97.9928 129.662 98.3975 127.808 98.3975C125.337 98.3975 123.428 97.6742 122.082 96.2275C120.736 94.7809 120.062 92.7256 120.062 90.0615C120.062 87.4046 120.746 85.3493 122.114 83.8955C123.489 82.4346 125.426 81.7041 127.926 81.7041C129.344 81.7041 131.009 81.9368 132.921 82.4023V84.5186C130.744 83.7666 129.064 83.3906 127.883 83.3906C126.157 83.3906 124.821 83.9743 123.876 85.1416C122.931 86.3089 122.458 87.9561 122.458 90.083C122.458 92.1169 122.963 93.7174 123.973 94.8848C124.982 96.0521 126.365 96.6357 128.119 96.6357C129.616 96.6357 131.224 96.1738 132.942 95.25V97.1836Z" fill="white" fill-opacity="0.7"/>
<path d="M147 94.1309C147 96.5781 147.725 98.7656 149.174 100.693C150.637 102.621 152.523 103.906 154.834 104.549L153.398 108.261C153.289 108.575 153.392 108.732 153.706 108.732H158.361L155.244 117.94H155.88L165.416 105.554C165.498 105.458 165.512 105.355 165.457 105.246C165.402 105.15 165.3 105.103 165.149 105.103H160.351L165.806 94.9307C165.97 94.6162 165.867 94.459 165.498 94.459H159.018C158.812 94.459 158.642 94.5684 158.505 94.7871L156.167 101.083C154.595 100.687 153.296 99.8457 152.271 98.5605C151.245 97.2617 150.732 95.7852 150.732 94.1309C150.732 92.2852 151.348 90.6924 152.578 89.3525C153.809 88.0127 155.347 87.2334 157.192 87.0146L158.3 86.9531C158.56 86.9531 158.724 86.8506 158.792 86.6455L158.956 85.3535C159.188 82.9883 160.187 81.0059 161.95 79.4062C163.728 77.793 165.819 76.9863 168.226 76.9863C170.604 76.9863 172.689 77.793 174.48 79.4062C176.285 81.0059 177.311 82.9883 177.557 85.3535L177.721 86.6455C177.721 86.8916 177.851 87.0146 178.11 87.0146H181.638C183.593 87.0146 185.274 87.7188 186.683 89.127C188.091 90.5215 188.795 92.1895 188.795 94.1309C188.795 96.0312 188.139 97.6855 186.826 99.0938C185.527 100.488 183.941 101.233 182.068 101.329C181.781 101.329 181.638 101.459 181.638 101.719V104.651C181.638 104.897 181.781 105.021 182.068 105.021C183.996 104.966 185.76 104.446 187.359 103.462C188.973 102.464 190.244 101.145 191.174 99.5039C192.104 97.8496 192.568 96.0586 192.568 94.1309C192.568 92.5312 192.254 91.0615 191.625 89.7217C193.293 87.6162 194.127 85.2168 194.127 82.5234C194.127 80.4453 193.607 78.5244 192.568 76.7607C191.543 74.9834 190.142 73.582 188.364 72.5566C186.601 71.5176 184.68 70.998 182.602 70.998C181.029 70.998 179.498 71.3262 178.008 71.9824C176.531 72.6387 175.253 73.5479 174.173 74.71C172.409 73.7666 170.427 73.2949 168.226 73.2949C165.122 73.2949 162.367 74.2588 159.961 76.1865C157.568 78.1006 156.037 80.5547 155.367 83.5488C152.947 84.1094 150.944 85.3809 149.358 87.3633C147.786 89.3457 147 91.6016 147 94.1309ZM164.247 116.484C164.247 116.854 164.363 117.209 164.596 117.551C164.828 117.906 165.184 118.152 165.662 118.289C165.854 118.33 166.031 118.351 166.195 118.351C167.139 118.351 167.72 117.906 167.938 117.018L168.226 115.726C168.362 115.165 168.301 114.666 168.041 114.229C167.781 113.791 167.398 113.524 166.893 113.429C166.428 113.278 165.97 113.326 165.519 113.572C165.067 113.832 164.767 114.208 164.616 114.7L164.329 115.992C164.274 116.238 164.247 116.402 164.247 116.484ZM165.416 67.2451C165.416 67.751 165.601 68.1885 165.97 68.5576L167.385 69.9932C167.727 70.335 168.13 70.5264 168.595 70.5674C169.046 70.6357 169.49 70.4717 169.928 70.0752C170.365 69.6787 170.584 69.2139 170.584 68.6807C170.584 68.1748 170.399 67.7373 170.03 67.3682L168.656 65.9326C168.301 65.5771 167.863 65.3994 167.344 65.3994C166.797 65.3994 166.339 65.5771 165.97 65.9326C165.601 66.2881 165.416 66.7256 165.416 67.2451ZM165.97 110.127C165.97 110.619 166.147 111.043 166.503 111.398C166.858 111.754 167.282 111.932 167.774 111.932C168.294 111.932 168.725 111.761 169.066 111.419C169.408 111.077 169.579 110.646 169.579 110.127C169.579 109.621 169.408 109.197 169.066 108.855C168.725 108.514 168.294 108.343 167.774 108.343C167.255 108.343 166.824 108.514 166.482 108.855C166.141 109.197 165.97 109.621 165.97 110.127ZM167.323 105.164C167.296 105.492 167.392 105.834 167.61 106.189C167.843 106.545 168.178 106.764 168.615 106.846C169.121 106.982 169.586 106.941 170.01 106.723C170.434 106.504 170.734 106.094 170.912 105.492L171.486 103.523C171.637 103.045 171.582 102.587 171.322 102.149C171.076 101.712 170.693 101.418 170.174 101.268C169.695 101.117 169.23 101.179 168.779 101.452C168.328 101.712 168.027 102.095 167.877 102.601L167.385 104.569C167.344 104.747 167.323 104.945 167.323 105.164ZM173.373 109.86C173.373 110.229 173.482 110.578 173.701 110.906C173.92 111.248 174.255 111.487 174.706 111.624C174.774 111.624 174.877 111.638 175.014 111.665C175.15 111.692 175.253 111.706 175.321 111.706C176.21 111.706 176.764 111.228 176.982 110.271L177.29 108.958C177.44 108.493 177.386 108.035 177.126 107.584C176.88 107.133 176.511 106.832 176.019 106.682C175.472 106.545 174.973 106.6 174.521 106.846C174.084 107.105 173.79 107.495 173.64 108.015L173.435 109.307C173.435 109.334 173.421 109.416 173.394 109.553C173.38 109.689 173.373 109.792 173.373 109.86ZM174.993 103.4C174.993 103.906 175.171 104.323 175.526 104.651C175.854 105.007 176.278 105.185 176.798 105.185C177.317 105.185 177.748 105.014 178.09 104.672C178.432 104.33 178.603 103.906 178.603 103.4C178.603 102.881 178.432 102.45 178.09 102.108C177.748 101.767 177.317 101.596 176.798 101.596C176.278 101.596 175.848 101.767 175.506 102.108C175.164 102.45 174.993 102.881 174.993 103.4ZM177.249 76.9248C178.712 75.5166 180.496 74.8125 182.602 74.8125C184.748 74.8125 186.573 75.5645 188.077 77.0684C189.595 78.5586 190.354 80.377 190.354 82.5234C190.354 83.959 190.012 85.2783 189.328 86.4814C187.223 84.376 184.659 83.3232 181.638 83.3232H180.961C180.318 80.7256 179.081 78.5928 177.249 76.9248ZM180.735 65.3994C180.735 65.9189 180.913 66.3633 181.269 66.7324C181.638 67.1016 182.082 67.2861 182.602 67.2861C183.121 67.2861 183.552 67.1084 183.894 66.7529C184.249 66.3838 184.427 65.9326 184.427 65.3994V60.8877C184.427 60.3545 184.249 59.9102 183.894 59.5547C183.552 59.1855 183.121 59.001 182.602 59.001C182.082 59.001 181.638 59.1855 181.269 59.5547C180.913 59.9238 180.735 60.3682 180.735 60.8877V65.3994ZM193.45 69.0908C193.108 69.4326 192.938 69.8701 192.938 70.4033C192.938 70.9365 193.108 71.374 193.45 71.7158C193.751 72.0576 194.147 72.249 194.64 72.29C195.146 72.3174 195.61 72.126 196.034 71.7158L199.192 68.5576C199.575 68.2021 199.767 67.7646 199.767 67.2451C199.767 66.7256 199.575 66.2881 199.192 65.9326C198.837 65.5498 198.399 65.3584 197.88 65.3584C197.374 65.3584 196.95 65.5498 196.608 65.9326L193.45 69.0908ZM194.64 96.4688C194.64 96.9746 194.824 97.4121 195.193 97.7812L196.608 99.1553C197.005 99.5244 197.456 99.709 197.962 99.709L198.003 99.75C198.481 99.75 198.878 99.5518 199.192 99.1553C199.575 98.7998 199.767 98.3623 199.767 97.8428C199.767 97.3369 199.575 96.8926 199.192 96.5098L197.839 95.1562C197.442 94.7598 196.998 94.5615 196.506 94.5615C195.986 94.5615 195.542 94.7529 195.173 95.1357C194.817 95.5049 194.64 95.9492 194.64 96.4688ZM197.839 82.5234C197.839 83.0566 198.03 83.4873 198.413 83.8154C198.755 84.1982 199.192 84.3896 199.726 84.3896H204.237C204.757 84.3896 205.201 84.2119 205.57 83.8564C205.939 83.4873 206.124 83.043 206.124 82.5234C206.124 82.0039 205.939 81.5732 205.57 81.2314C205.215 80.876 204.771 80.6982 204.237 80.6982H199.726C199.192 80.6982 198.741 80.876 198.372 81.2314C198.017 81.5732 197.839 82.0039 197.839 82.5234Z" fill="white" fill-opacity="0.7"/>
<path d="M87.8945 50V34.1016H90.1074L98.1104 46.3799V34.1016H100.044V50H97.8418L89.8281 37.7217V50H87.8945ZM112.773 49.624C111.355 50.0537 110.142 50.2686 109.132 50.2686C107.406 50.2686 106.002 49.6992 104.921 48.5605C103.84 47.4147 103.299 45.9323 103.299 44.1133C103.299 42.3444 103.775 40.8942 104.728 39.7627C105.687 38.6312 106.912 38.0654 108.401 38.0654C109.812 38.0654 110.901 38.5703 111.667 39.5801C112.44 40.5827 112.827 42.0078 112.827 43.8555L112.816 44.5H105.458C105.766 47.2715 107.123 48.6572 109.529 48.6572C110.41 48.6572 111.492 48.4209 112.773 47.9482V49.624ZM105.555 42.9102H110.7C110.7 40.7402 109.891 39.6553 108.272 39.6553C106.647 39.6553 105.741 40.7402 105.555 42.9102ZM117.844 50L114.503 38.334H116.576L119.133 47.3682L121.894 38.334H124.01L126.427 47.3682L129.359 38.334H131.175L127.372 50H125.245L122.774 40.9658L119.981 50H117.844ZM132.915 44.167V42.8457H142.454V44.167H132.915ZM149.555 50V43.3613L144.248 34.1016H146.826L150.951 41.2773L155.398 34.1016H157.493L151.811 43.3184V50H149.555ZM164.529 50.2686C162.818 50.2686 161.461 49.7207 160.458 48.625C159.463 47.5293 158.965 46.0433 158.965 44.167C158.965 42.2907 159.463 40.8083 160.458 39.7197C161.461 38.624 162.818 38.0762 164.529 38.0762C166.241 38.0762 167.594 38.624 168.59 39.7197C169.592 40.8083 170.094 42.2907 170.094 44.167C170.094 46.0433 169.592 47.5293 168.59 48.625C167.594 49.7207 166.241 50.2686 164.529 50.2686ZM164.529 48.6787C165.582 48.6787 166.398 48.2848 166.979 47.4971C167.559 46.7093 167.849 45.5993 167.849 44.167C167.849 42.7347 167.559 41.6283 166.979 40.8477C166.398 40.0599 165.582 39.666 164.529 39.666C163.477 39.666 162.66 40.0599 162.08 40.8477C161.507 41.6283 161.221 42.7347 161.221 44.167C161.221 45.5993 161.507 46.7093 162.08 47.4971C162.66 48.2848 163.477 48.6787 164.529 48.6787ZM173.402 50V38.334H175.519V40.5254C176.356 38.8926 177.574 38.0762 179.171 38.0762C179.386 38.0762 179.611 38.0941 179.848 38.1299V40.1064C179.482 39.9847 179.16 39.9238 178.881 39.9238C177.542 39.9238 176.421 40.7188 175.519 42.3086V50H173.402ZM182.404 50V33.0381H184.521V43.9951L189.462 38.334H191.739L187.023 43.7803L192.717 50H190.01L184.521 44.0166V50H182.404Z" fill="white"/>
</g>
</svg>
