<svg width="583" height="147" viewBox="0 0 583 147" fill="none" xmlns="http://www.w3.org/2000/svg">
<g opacity="0.7">
<rect x="1" y="1" width="581" height="145" fill="#CC6699" stroke="white" stroke-width="2"/>
<path d="M238.758 98V83.6914H236.244V82.3594L240.885 81.9619V98H238.758ZM249.597 98.0645V96.1738C250.649 96.5964 251.652 96.8076 252.604 96.8076C253.65 96.8076 254.47 96.4997 255.064 95.8838C255.666 95.2679 255.967 94.4193 255.967 93.3379C255.967 92.1777 255.544 91.2933 254.699 90.6846C253.854 90.0687 252.633 89.7607 251.036 89.7607C250.664 89.7607 250.273 89.7858 249.865 89.8359V82.1016H257.911V83.9492H251.724V88.1387C253.765 88.1387 255.358 88.6077 256.504 89.5459C257.65 90.484 258.223 91.7839 258.223 93.4453C258.223 94.9922 257.7 96.2061 256.654 97.0869C255.616 97.9606 254.18 98.3975 252.347 98.3975C251.53 98.3975 250.614 98.2865 249.597 98.0645ZM263.916 86.4736C263.25 86.4736 262.684 86.2409 262.219 85.7754C261.76 85.3099 261.531 84.7441 261.531 84.0781C261.531 83.4121 261.76 82.8499 262.219 82.3916C262.684 81.9333 263.25 81.7041 263.916 81.7041C264.582 81.7041 265.144 81.9368 265.603 82.4023C266.068 82.8607 266.301 83.4193 266.301 84.0781C266.301 84.7441 266.068 85.3099 265.603 85.7754C265.144 86.2409 264.582 86.4736 263.916 86.4736ZM263.916 85.4102C264.274 85.4102 264.582 85.2777 264.84 85.0127C265.105 84.7477 265.237 84.4398 265.237 84.0889C265.237 83.7308 265.105 83.4193 264.84 83.1543C264.582 82.8893 264.274 82.7568 263.916 82.7568C263.565 82.7568 263.257 82.8893 262.992 83.1543C262.727 83.4193 262.595 83.7308 262.595 84.0889C262.595 84.4398 262.727 84.7477 262.992 85.0127C263.257 85.2777 263.565 85.4102 263.916 85.4102ZM280.942 97.1836C279.374 97.9928 277.662 98.3975 275.808 98.3975C273.337 98.3975 271.428 97.6742 270.082 96.2275C268.736 94.7809 268.062 92.7256 268.062 90.0615C268.062 87.4046 268.746 85.3493 270.114 83.8955C271.489 82.4346 273.426 81.7041 275.926 81.7041C277.344 81.7041 279.009 81.9368 280.921 82.4023V84.5186C278.744 83.7666 277.064 83.3906 275.883 83.3906C274.157 83.3906 272.821 83.9743 271.876 85.1416C270.931 86.3089 270.458 87.9561 270.458 90.083C270.458 92.1169 270.963 93.7174 271.973 94.8848C272.982 96.0521 274.365 96.6357 276.119 96.6357C277.616 96.6357 279.224 96.1738 280.942 95.25V97.1836Z" fill="white" fill-opacity="0.7"/>
<path d="M298 86.5635C298 87.1514 298.205 87.6367 298.615 88.0195C299.025 88.4023 299.552 88.5938 300.194 88.5938H303.886C304.474 88.5938 304.973 88.4023 305.383 88.0195C305.807 87.623 306.019 87.1377 306.019 86.5635C306.019 85.9346 305.813 85.415 305.403 85.0049C304.993 84.5947 304.487 84.3896 303.886 84.3896H300.194C299.552 84.3896 299.025 84.5947 298.615 85.0049C298.205 85.4014 298 85.9209 298 86.5635ZM301.876 100.099C301.876 102.218 302.648 104.05 304.193 105.595C305.738 107.153 307.57 107.933 309.689 107.933H324.701C326.82 107.933 328.632 107.167 330.136 105.636C331.653 104.104 332.412 102.259 332.412 100.099C332.412 99.0459 332.262 98.1504 331.961 97.4121C333.779 96.25 335.215 94.7051 336.268 92.7773C337.334 90.8359 337.867 88.7646 337.867 86.5635C337.867 84.7861 337.519 83.0908 336.821 81.4775C336.124 79.8506 335.188 78.4561 334.012 77.2939C332.85 76.1182 331.455 75.1816 329.828 74.4844C328.215 73.7871 326.526 73.4385 324.763 73.4385C322.37 73.4385 320.162 74.0264 318.139 75.2021C316.129 76.3779 314.543 77.9707 313.381 79.9805C312.232 81.9902 311.658 84.1846 311.658 86.5635V87.3018C309.471 88.5459 308.028 90.3643 307.331 92.7568C305.677 93.2764 304.351 94.1992 303.353 95.5254C302.368 96.8516 301.876 98.376 301.876 100.099ZM305.28 69.1113C305.28 69.7266 305.472 70.2188 305.854 70.5879L309.382 74.2793C310.407 75.0586 311.433 75.0586 312.458 74.2793C312.868 73.8691 313.073 73.3564 313.073 72.7412C313.073 72.1533 312.868 71.6406 312.458 71.2031L308.849 67.6143C308.384 67.1904 307.878 66.9785 307.331 66.9785C306.716 66.9785 306.217 67.1836 305.834 67.5938C305.465 68.0039 305.28 68.5098 305.28 69.1113ZM306.203 100.099C306.203 99.1826 306.497 98.3965 307.085 97.7402C307.673 97.084 308.418 96.7148 309.32 96.6328L310.674 96.4482C310.961 96.4482 311.104 96.2842 311.104 95.9561L311.31 94.7256C311.46 93.4678 311.993 92.415 312.909 91.5674C313.825 90.7197 314.905 90.2959 316.149 90.2959C317.421 90.2959 318.521 90.7197 319.451 91.5674C320.395 92.415 320.941 93.4678 321.092 94.7256L321.276 96.1406C321.413 96.4688 321.591 96.6328 321.81 96.6328H324.701C325.645 96.6328 326.458 96.9746 327.142 97.6582C327.839 98.3418 328.188 99.1553 328.188 100.099C328.188 101.083 327.839 101.924 327.142 102.621C326.458 103.318 325.645 103.667 324.701 103.667H309.689C308.705 103.667 307.878 103.318 307.208 102.621C306.538 101.924 306.203 101.083 306.203 100.099ZM315.883 86.1123C316.033 83.7197 316.956 81.71 318.651 80.083C320.347 78.4561 322.384 77.6426 324.763 77.6426C327.196 77.6426 329.268 78.5107 330.977 80.2471C332.686 81.9834 333.54 84.0889 333.54 86.5635C333.54 88.0947 333.164 89.5166 332.412 90.8291C331.674 92.1279 330.669 93.1807 329.397 93.9873C328.112 92.9209 326.629 92.3877 324.947 92.3877C324.305 90.4736 323.184 88.9492 321.584 87.8145C319.984 86.6797 318.173 86.1123 316.149 86.1123H315.883ZM322.63 66.9785C322.63 67.5801 322.835 68.0928 323.245 68.5166C323.669 68.9268 324.175 69.1318 324.763 69.1318C325.364 69.1318 325.87 68.9268 326.28 68.5166C326.704 68.0928 326.916 67.5801 326.916 66.9785V61.8516C326.916 61.2773 326.704 60.7988 326.28 60.416C325.87 60.0195 325.364 59.8213 324.763 59.8213C324.175 59.8213 323.669 60.0195 323.245 60.416C322.835 60.7988 322.63 61.2773 322.63 61.8516V66.9785ZM337.026 98.8066C336.644 99.2031 336.452 99.6953 336.452 100.283C336.452 100.871 336.65 101.384 337.047 101.821L340.636 105.369C341.552 106.299 342.577 106.299 343.712 105.369C344.095 105 344.286 104.508 344.286 103.893C344.286 103.305 344.095 102.819 343.712 102.437L340.021 98.7656C339.624 98.3965 339.125 98.2119 338.523 98.2119C337.922 98.2119 337.423 98.4102 337.026 98.8066ZM336.452 72.7002C336.452 73.3154 336.65 73.8418 337.047 74.2793C337.443 74.6758 337.936 74.874 338.523 74.874C339.125 74.874 339.624 74.6758 340.021 74.2793L343.712 70.5879C344.095 70.2188 344.286 69.7266 344.286 69.1113C344.286 68.5098 344.074 68.0039 343.65 67.5938C343.24 67.1836 342.734 66.9785 342.133 66.9785C341.559 66.9785 341.06 67.1904 340.636 67.6143L337.047 71.2031C336.65 71.5996 336.452 72.0986 336.452 72.7002ZM342.112 86.5635C342.112 87.1514 342.317 87.6367 342.728 88.0195C343.138 88.4023 343.664 88.5938 344.307 88.5938H347.998C348.586 88.5938 349.085 88.4023 349.495 88.0195C349.919 87.623 350.131 87.1377 350.131 86.5635C350.131 85.9346 349.926 85.415 349.516 85.0049C349.105 84.5947 348.6 84.3896 347.998 84.3896H344.307C343.664 84.3896 343.138 84.5947 342.728 85.0049C342.317 85.4014 342.112 85.9209 342.112 86.5635Z" fill="white" fill-opacity="0.7"/>
<path d="M216.729 49.6992V47.4648C218.519 48.2956 219.994 48.7109 221.154 48.7109C222.035 48.7109 222.744 48.4782 223.281 48.0127C223.826 47.54 224.098 46.9277 224.098 46.1758C224.098 45.5527 223.919 45.0228 223.561 44.5859C223.21 44.1491 222.558 43.6621 221.605 43.125L220.51 42.4912C219.156 41.7178 218.2 40.9909 217.642 40.3105C217.09 39.623 216.814 38.8281 216.814 37.9258C216.814 36.694 217.258 35.6842 218.146 34.8965C219.035 34.1016 220.166 33.7041 221.541 33.7041C222.766 33.7041 224.058 33.9082 225.419 34.3164V36.3789C223.743 35.7201 222.493 35.3906 221.67 35.3906C220.889 35.3906 220.245 35.5983 219.736 36.0137C219.228 36.429 218.974 36.9518 218.974 37.582C218.974 38.112 219.16 38.5811 219.532 38.9893C219.905 39.3975 220.585 39.8844 221.573 40.4502L222.712 41.0947C224.087 41.8753 225.047 42.613 225.591 43.3076C226.135 44.0023 226.407 44.8366 226.407 45.8105C226.407 47.1927 225.899 48.3027 224.882 49.1406C223.865 49.9785 222.515 50.3975 220.832 50.3975C219.758 50.3975 218.39 50.1647 216.729 49.6992ZM235.646 48.5176C234.378 49.6849 233.157 50.2686 231.982 50.2686C231.016 50.2686 230.214 49.9678 229.576 49.3662C228.939 48.7575 228.62 47.9912 228.62 47.0674C228.62 45.7926 229.154 44.8151 230.221 44.1348C231.295 43.4473 232.835 43.1035 234.84 43.1035H235.334V41.6963C235.334 40.3428 234.629 39.666 233.218 39.666C232.122 39.666 230.926 40.0098 229.63 40.6973V38.9463C231.055 38.3662 232.398 38.0762 233.658 38.0762C234.954 38.0762 235.91 38.3734 236.526 38.9678C237.142 39.555 237.45 40.4645 237.45 41.6963V46.9814C237.45 48.1917 237.823 48.7969 238.567 48.7969C238.66 48.7969 238.797 48.7826 238.976 48.7539L239.126 49.9248C238.646 50.154 238.116 50.2686 237.536 50.2686C236.548 50.2686 235.918 49.6849 235.646 48.5176ZM235.334 47.3682V44.3496L234.657 44.3281C233.483 44.3281 232.534 44.5465 231.811 44.9834C231.094 45.4202 230.736 46.0003 230.736 46.7236C230.736 47.2321 230.915 47.6618 231.273 48.0127C231.632 48.3636 232.068 48.5391 232.584 48.5391C233.465 48.5391 234.382 48.1488 235.334 47.3682ZM241.79 50V38.334H243.906V40.5254C245.023 38.8926 246.391 38.0762 248.01 38.0762C249.027 38.0762 249.832 38.3984 250.427 39.043C251.028 39.6803 251.329 40.5397 251.329 41.6211V50H249.213V42.3086C249.213 41.4421 249.084 40.8262 248.826 40.4609C248.576 40.0885 248.157 39.9023 247.569 39.9023C246.273 39.9023 245.052 40.751 243.906 42.4482V50H241.79ZM254.928 44.167V42.8457H264.467V44.167H254.928ZM268.13 50V34.1016H277.014V35.7881H270.386V41.1162H275.95V42.7812H270.386V50H268.13ZM279.989 50V38.334H282.105V40.5254C282.943 38.8926 284.161 38.0762 285.758 38.0762C285.973 38.0762 286.198 38.0941 286.435 38.1299V40.1064C286.069 39.9847 285.747 39.9238 285.468 39.9238C284.129 39.9238 283.008 40.7188 282.105 42.3086V50H279.989ZM295.007 48.5176C293.739 49.6849 292.518 50.2686 291.344 50.2686C290.377 50.2686 289.575 49.9678 288.938 49.3662C288.3 48.7575 287.981 47.9912 287.981 47.0674C287.981 45.7926 288.515 44.8151 289.582 44.1348C290.656 43.4473 292.196 43.1035 294.201 43.1035H294.695V41.6963C294.695 40.3428 293.99 39.666 292.579 39.666C291.483 39.666 290.287 40.0098 288.991 40.6973V38.9463C290.416 38.3662 291.759 38.0762 293.02 38.0762C294.316 38.0762 295.272 38.3734 295.888 38.9678C296.504 39.555 296.812 40.4645 296.812 41.6963V46.9814C296.812 48.1917 297.184 48.7969 297.929 48.7969C298.022 48.7969 298.158 48.7826 298.337 48.7539L298.487 49.9248C298.007 50.154 297.478 50.2686 296.897 50.2686C295.909 50.2686 295.279 49.6849 295.007 48.5176ZM294.695 47.3682V44.3496L294.019 44.3281C292.844 44.3281 291.895 44.5465 291.172 44.9834C290.456 45.4202 290.098 46.0003 290.098 46.7236C290.098 47.2321 290.277 47.6618 290.635 48.0127C290.993 48.3636 291.43 48.5391 291.945 48.5391C292.826 48.5391 293.743 48.1488 294.695 47.3682ZM301.151 50V38.334H303.268V40.5254C304.385 38.8926 305.753 38.0762 307.371 38.0762C308.388 38.0762 309.194 38.3984 309.788 39.043C310.39 39.6803 310.69 40.5397 310.69 41.6211V50H308.574V42.3086C308.574 41.4421 308.445 40.8262 308.188 40.4609C307.937 40.0885 307.518 39.9023 306.931 39.9023C305.634 39.9023 304.413 40.751 303.268 42.4482V50H301.151ZM322.915 49.6455C321.547 50.0609 320.366 50.2686 319.37 50.2686C317.795 50.2686 316.488 49.6849 315.449 48.5176C314.411 47.3503 313.892 45.8786 313.892 44.1025C313.892 42.2048 314.404 40.7259 315.428 39.666C316.459 38.6061 317.895 38.0762 319.735 38.0762C320.645 38.0762 321.662 38.2015 322.786 38.4521V40.2246C321.59 39.8737 320.616 39.6982 319.864 39.6982C318.776 39.6982 317.906 40.1064 317.254 40.9229C316.602 41.7321 316.276 42.8135 316.276 44.167C316.276 45.4775 316.613 46.5374 317.286 47.3467C317.959 48.1559 318.84 48.5605 319.929 48.5605C320.896 48.5605 321.891 48.3135 322.915 47.8193V49.6455ZM326.095 50V38.334H328.211V50H326.095ZM326.095 36.2178V34.1016H328.211V36.2178H326.095ZM332.024 49.5918V47.6475C333.407 48.335 334.61 48.6787 335.634 48.6787C336.243 48.6787 336.747 48.514 337.148 48.1846C337.549 47.8551 337.75 47.4434 337.75 46.9492C337.75 46.2259 337.188 45.6279 336.063 45.1553L334.828 44.6289C333.002 43.8698 332.089 42.7777 332.089 41.3525C332.089 40.3356 332.447 39.5371 333.163 38.957C333.886 38.3698 334.875 38.0762 336.128 38.0762C336.78 38.0762 337.585 38.1657 338.545 38.3447L338.985 38.4307V40.1924C337.804 39.8415 336.862 39.666 336.16 39.666C335.544 39.666 335.05 39.8021 334.678 40.0742C334.312 40.3392 334.13 40.6973 334.13 41.1484C334.13 41.7858 334.646 42.3229 335.677 42.7598L336.697 43.1895C337.85 43.6764 338.667 44.1921 339.146 44.7363C339.626 45.2734 339.866 45.9466 339.866 46.7559C339.866 47.7799 339.462 48.6214 338.652 49.2803C337.843 49.9391 336.808 50.2686 335.548 50.2686C334.581 50.2686 333.407 50.043 332.024 49.5918ZM351.769 49.6455C350.401 50.0609 349.219 50.2686 348.224 50.2686C346.648 50.2686 345.341 49.6849 344.303 48.5176C343.264 47.3503 342.745 45.8786 342.745 44.1025C342.745 42.2048 343.257 40.7259 344.281 39.666C345.312 38.6061 346.748 38.0762 348.589 38.0762C349.498 38.0762 350.515 38.2015 351.64 38.4521V40.2246C350.444 39.8737 349.47 39.6982 348.718 39.6982C347.629 39.6982 346.759 40.1064 346.107 40.9229C345.456 41.7321 345.13 42.8135 345.13 44.167C345.13 45.4775 345.466 46.5374 346.14 47.3467C346.813 48.1559 347.694 48.5605 348.782 48.5605C349.749 48.5605 350.744 48.3135 351.769 47.8193V49.6455ZM359.589 50.2686C357.877 50.2686 356.52 49.7207 355.518 48.625C354.522 47.5293 354.024 46.0433 354.024 44.167C354.024 42.2907 354.522 40.8083 355.518 39.7197C356.52 38.624 357.877 38.0762 359.589 38.0762C361.3 38.0762 362.654 38.624 363.649 39.7197C364.652 40.8083 365.153 42.2907 365.153 44.167C365.153 46.0433 364.652 47.5293 363.649 48.625C362.654 49.7207 361.3 50.2686 359.589 50.2686ZM359.589 48.6787C360.642 48.6787 361.458 48.2848 362.038 47.4971C362.618 46.7093 362.908 45.5993 362.908 44.167C362.908 42.7347 362.618 41.6283 362.038 40.8477C361.458 40.0599 360.642 39.666 359.589 39.666C358.536 39.666 357.72 40.0599 357.14 40.8477C356.567 41.6283 356.28 42.7347 356.28 44.167C356.28 45.5993 356.567 46.7093 357.14 47.4971C357.72 48.2848 358.536 48.6787 359.589 48.6787Z" fill="white"/>
</g>
</svg>
