<svg width="583" height="147" viewBox="0 0 583 147" fill="none" xmlns="http://www.w3.org/2000/svg">
<g opacity="0.7">
<rect x="1" y="1" width="581" height="145" fill="#3399CC" stroke="white" stroke-width="2"/>
<path d="M238.826 98V96.1416C239.442 94.7021 240.688 93.1338 242.564 91.4365L243.778 90.3516C245.34 88.9408 246.12 87.5407 246.12 86.1514C246.12 85.2633 245.852 84.5651 245.314 84.0566C244.785 83.5482 244.05 83.2939 243.112 83.2939C242.017 83.2939 240.72 83.7201 239.224 84.5723V82.7031C240.634 82.0371 242.038 81.7041 243.435 81.7041C244.924 81.7041 246.117 82.1051 247.012 82.9072C247.914 83.7093 248.365 84.7728 248.365 86.0977C248.365 87.0501 248.136 87.8952 247.678 88.6328C247.227 89.3704 246.382 90.2656 245.143 91.3184L244.326 92.0166C242.629 93.4561 241.648 94.8311 241.383 96.1416H248.29V98H238.826ZM256.68 98V83.6914H254.166V82.3594L258.807 81.9619V98H256.68ZM267.916 86.4736C267.25 86.4736 266.684 86.2409 266.219 85.7754C265.76 85.3099 265.531 84.7441 265.531 84.0781C265.531 83.4121 265.76 82.8499 266.219 82.3916C266.684 81.9333 267.25 81.7041 267.916 81.7041C268.582 81.7041 269.144 81.9368 269.603 82.4023C270.068 82.8607 270.301 83.4193 270.301 84.0781C270.301 84.7441 270.068 85.3099 269.603 85.7754C269.144 86.2409 268.582 86.4736 267.916 86.4736ZM267.916 85.4102C268.274 85.4102 268.582 85.2777 268.84 85.0127C269.105 84.7477 269.237 84.4398 269.237 84.0889C269.237 83.7308 269.105 83.4193 268.84 83.1543C268.582 82.8893 268.274 82.7568 267.916 82.7568C267.565 82.7568 267.257 82.8893 266.992 83.1543C266.727 83.4193 266.595 83.7308 266.595 84.0889C266.595 84.4398 266.727 84.7477 266.992 85.0127C267.257 85.2777 267.565 85.4102 267.916 85.4102ZM284.942 97.1836C283.374 97.9928 281.662 98.3975 279.808 98.3975C277.337 98.3975 275.428 97.6742 274.082 96.2275C272.736 94.7809 272.062 92.7256 272.062 90.0615C272.062 87.4046 272.746 85.3493 274.114 83.8955C275.489 82.4346 277.426 81.7041 279.926 81.7041C281.344 81.7041 283.009 81.9368 284.921 82.4023V84.5186C282.744 83.7666 281.064 83.3906 279.883 83.3906C278.157 83.3906 276.821 83.9743 275.876 85.1416C274.931 86.3089 274.458 87.9561 274.458 90.083C274.458 92.1169 274.963 93.7174 275.973 94.8848C276.982 96.0521 278.365 96.6357 280.119 96.6357C281.616 96.6357 283.224 96.1738 284.942 95.25V97.1836Z" fill="white" fill-opacity="0.7"/>
<path d="M298 89.1885C298 88.6553 298.185 88.2041 298.554 87.835C298.937 87.4795 299.374 87.3018 299.866 87.3018H304.337C304.843 87.3018 305.26 87.4863 305.588 87.8555C305.93 88.2246 306.101 88.6689 306.101 89.1885C306.101 89.708 305.93 90.1523 305.588 90.5215C305.26 90.877 304.843 91.0547 304.337 91.0547H299.866C299.36 91.0547 298.923 90.8701 298.554 90.501C298.185 90.1318 298 89.6943 298 89.1885ZM304.255 104.344C304.255 103.838 304.426 103.394 304.768 103.011L307.987 99.8936C308.315 99.5518 308.746 99.3809 309.279 99.3809C309.799 99.3809 310.229 99.5449 310.571 99.873C310.927 100.201 311.104 100.618 311.104 101.124C311.104 101.657 310.927 102.122 310.571 102.519L307.454 105.636C306.565 106.333 305.67 106.333 304.768 105.636C304.426 105.267 304.255 104.836 304.255 104.344ZM304.255 74.0537C304.255 73.5479 304.426 73.1035 304.768 72.7207C305.191 72.3652 305.656 72.1875 306.162 72.1875C306.641 72.1875 307.071 72.3652 307.454 72.7207L310.571 75.9404C310.927 76.2686 311.104 76.6992 311.104 77.2324C311.104 77.752 310.927 78.1895 310.571 78.5449C310.229 78.8867 309.799 79.0576 309.279 79.0576C308.746 79.0576 308.315 78.8799 307.987 78.5244L304.768 75.4072C304.426 75.0381 304.255 74.5869 304.255 74.0537ZM309.833 89.1885C309.833 87.1514 310.346 85.2578 311.371 83.5078C312.396 81.7441 313.784 80.3496 315.534 79.3242C317.298 78.2988 319.198 77.7861 321.235 77.7861C322.767 77.7861 324.236 78.0938 325.645 78.709C327.053 79.3105 328.263 80.124 329.274 81.1494C330.3 82.1611 331.113 83.3711 331.715 84.7793C332.316 86.1875 332.617 87.6572 332.617 89.1885C332.617 91.2393 332.104 93.1396 331.079 94.8896C330.067 96.6396 328.687 98.0273 326.937 99.0527C325.187 100.064 323.286 100.57 321.235 100.57C319.185 100.57 317.284 100.064 315.534 99.0527C313.784 98.0273 312.396 96.6396 311.371 94.8896C310.346 93.1396 309.833 91.2393 309.833 89.1885ZM313.545 89.1885C313.545 91.3213 314.29 93.1465 315.78 94.6641C317.284 96.168 319.103 96.9199 321.235 96.9199C323.368 96.9199 325.187 96.168 326.69 94.6641C328.208 93.1465 328.967 91.3213 328.967 89.1885C328.967 87.083 328.208 85.2852 326.69 83.7949C325.187 82.3047 323.368 81.5596 321.235 81.5596C319.116 81.5596 317.305 82.3047 315.801 83.7949C314.297 85.2852 313.545 87.083 313.545 89.1885ZM319.369 106.189C319.369 105.67 319.547 105.232 319.902 104.877C320.271 104.521 320.716 104.344 321.235 104.344C321.769 104.344 322.213 104.521 322.568 104.877C322.924 105.232 323.102 105.67 323.102 106.189V110.537C323.102 111.07 322.917 111.521 322.548 111.891C322.192 112.26 321.755 112.444 321.235 112.444C320.716 112.444 320.271 112.26 319.902 111.891C319.547 111.521 319.369 111.07 319.369 110.537V106.189ZM319.369 72.29V67.8193C319.369 67.3135 319.554 66.876 319.923 66.5068C320.292 66.1377 320.729 65.9531 321.235 65.9531C321.741 65.9531 322.179 66.1377 322.548 66.5068C322.917 66.876 323.102 67.3135 323.102 67.8193V72.29C323.102 72.7959 322.917 73.2197 322.548 73.5615C322.192 73.8896 321.755 74.0537 321.235 74.0537C320.716 74.0537 320.271 73.8896 319.902 73.5615C319.547 73.2197 319.369 72.7959 319.369 72.29ZM331.448 101.124C331.448 100.618 331.612 100.208 331.94 99.8936C332.269 99.5518 332.679 99.3809 333.171 99.3809C333.704 99.3809 334.142 99.5518 334.483 99.8936L337.683 103.011C338.038 103.394 338.216 103.838 338.216 104.344C338.216 104.85 338.038 105.28 337.683 105.636C336.808 106.319 335.933 106.319 335.058 105.636L331.94 102.519C331.612 102.149 331.448 101.685 331.448 101.124ZM331.448 77.2324C331.448 76.6855 331.612 76.2549 331.94 75.9404L335.058 72.7207C335.44 72.3652 335.871 72.1875 336.35 72.1875C336.869 72.1875 337.307 72.3721 337.662 72.7412C338.031 73.1104 338.216 73.5479 338.216 74.0537C338.216 74.6006 338.038 75.0518 337.683 75.4072L334.483 78.5244C334.087 78.8799 333.649 79.0576 333.171 79.0576C332.679 79.0576 332.269 78.8867 331.94 78.5449C331.612 78.1895 331.448 77.752 331.448 77.2324ZM336.903 90.5215C336.562 90.1523 336.391 89.708 336.391 89.1885C336.391 88.6689 336.568 88.2178 336.924 87.835C337.279 87.4795 337.696 87.3018 338.175 87.3018H342.604C343.11 87.3018 343.548 87.4932 343.917 87.876C344.3 88.2451 344.491 88.6826 344.491 89.1885C344.491 89.6943 344.3 90.1318 343.917 90.501C343.548 90.8701 343.11 91.0547 342.604 91.0547H338.175C337.669 91.0547 337.245 90.877 336.903 90.5215Z" fill="white" fill-opacity="0.7"/>
<path d="M256.882 50V34.1016H259.138V48.3135H266.292V50H256.882ZM268.677 50V38.334H270.793V50H268.677ZM268.677 36.2178V34.1016H270.793V36.2178H268.677ZM274.606 49.5918V47.6475C275.989 48.335 277.192 48.6787 278.216 48.6787C278.825 48.6787 279.329 48.514 279.73 48.1846C280.132 47.8551 280.332 47.4434 280.332 46.9492C280.332 46.2259 279.77 45.6279 278.646 45.1553L277.41 44.6289C275.584 43.8698 274.671 42.7777 274.671 41.3525C274.671 40.3356 275.029 39.5371 275.745 38.957C276.468 38.3698 277.457 38.0762 278.71 38.0762C279.362 38.0762 280.167 38.1657 281.127 38.3447L281.567 38.4307V40.1924C280.386 39.8415 279.444 39.666 278.742 39.666C278.126 39.666 277.632 39.8021 277.26 40.0742C276.895 40.3392 276.712 40.6973 276.712 41.1484C276.712 41.7858 277.228 42.3229 278.259 42.7598L279.279 43.1895C280.432 43.6764 281.249 44.1921 281.729 44.7363C282.208 45.2734 282.448 45.9466 282.448 46.7559C282.448 47.7799 282.044 48.6214 281.234 49.2803C280.425 49.9391 279.39 50.2686 278.13 50.2686C277.163 50.2686 275.989 50.043 274.606 49.5918ZM286.251 50.1289V33.0381H288.367V40.5254C289.234 38.8926 290.534 38.0762 292.267 38.0762C293.67 38.0762 294.773 38.5882 295.575 39.6123C296.384 40.6364 296.789 42.0365 296.789 43.8125C296.789 45.7461 296.331 47.3073 295.414 48.4961C294.505 49.6777 293.305 50.2686 291.815 50.2686C290.433 50.2686 289.284 49.7386 288.367 48.6787L288.109 50.1289H286.251ZM288.367 47.2178C289.456 48.1917 290.494 48.6787 291.482 48.6787C292.456 48.6787 293.208 48.2741 293.738 47.4648C294.268 46.6484 294.533 45.5026 294.533 44.0273C294.533 41.2917 293.631 39.9238 291.826 39.9238C290.645 39.9238 289.492 40.5648 288.367 41.8467V47.2178ZM304.749 50.2686C303.037 50.2686 301.68 49.7207 300.678 48.625C299.682 47.5293 299.185 46.0433 299.185 44.167C299.185 42.2907 299.682 40.8083 300.678 39.7197C301.68 38.624 303.037 38.0762 304.749 38.0762C306.461 38.0762 307.814 38.624 308.81 39.7197C309.812 40.8083 310.313 42.2907 310.313 44.167C310.313 46.0433 309.812 47.5293 308.81 48.625C307.814 49.7207 306.461 50.2686 304.749 50.2686ZM304.749 48.6787C305.802 48.6787 306.618 48.2848 307.198 47.4971C307.778 46.7093 308.068 45.5993 308.068 44.167C308.068 42.7347 307.778 41.6283 307.198 40.8477C306.618 40.0599 305.802 39.666 304.749 39.666C303.696 39.666 302.88 40.0599 302.3 40.8477C301.727 41.6283 301.44 42.7347 301.44 44.167C301.44 45.5993 301.727 46.7093 302.3 47.4971C302.88 48.2848 303.696 48.6787 304.749 48.6787ZM313.622 50V38.334H315.738V40.5254C316.855 38.8926 318.223 38.0762 319.842 38.0762C320.859 38.0762 321.664 38.3984 322.259 39.043C322.86 39.6803 323.161 40.5397 323.161 41.6211V50H321.045V42.3086C321.045 41.4421 320.916 40.8262 320.658 40.4609C320.408 40.0885 319.989 39.9023 319.401 39.9023C318.105 39.9023 316.884 40.751 315.738 42.4482V50H313.622Z" fill="white"/>
</g>
</svg>
