<svg width="1166" height="147" viewBox="0 0 1166 147" fill="none" xmlns="http://www.w3.org/2000/svg">
<g opacity="0.7">
<rect x="1" y="1" width="1164" height="145" fill="#666699" stroke="white" stroke-width="2"/>
<path d="M533.826 98V96.1416C534.442 94.7021 535.688 93.1338 537.564 91.4365L538.778 90.3516C540.34 88.9408 541.12 87.5407 541.12 86.1514C541.12 85.2633 540.852 84.5651 540.314 84.0566C539.785 83.5482 539.05 83.2939 538.112 83.2939C537.017 83.2939 535.72 83.7201 534.224 84.5723V82.7031C535.634 82.0371 537.038 81.7041 538.435 81.7041C539.924 81.7041 541.117 82.1051 542.012 82.9072C542.914 83.7093 543.365 84.7728 543.365 86.0977C543.365 87.0501 543.136 87.8952 542.678 88.6328C542.227 89.3704 541.382 90.2656 540.143 91.3184L539.326 92.0166C537.629 93.4561 536.648 94.8311 536.383 96.1416H543.29V98H533.826ZM548.597 98.0645V96.1738C549.649 96.5964 550.652 96.8076 551.604 96.8076C552.65 96.8076 553.47 96.4997 554.064 95.8838C554.666 95.2679 554.967 94.4193 554.967 93.3379C554.967 92.1777 554.544 91.2933 553.699 90.6846C552.854 90.0687 551.633 89.7607 550.036 89.7607C549.664 89.7607 549.273 89.7858 548.865 89.8359V82.1016H556.911V83.9492H550.724V88.1387C552.765 88.1387 554.358 88.6077 555.504 89.5459C556.65 90.484 557.223 91.7839 557.223 93.4453C557.223 94.9922 556.7 96.2061 555.654 97.0869C554.616 97.9606 553.18 98.3975 551.347 98.3975C550.53 98.3975 549.614 98.2865 548.597 98.0645ZM562.916 86.4736C562.25 86.4736 561.684 86.2409 561.219 85.7754C560.76 85.3099 560.531 84.7441 560.531 84.0781C560.531 83.4121 560.76 82.8499 561.219 82.3916C561.684 81.9333 562.25 81.7041 562.916 81.7041C563.582 81.7041 564.144 81.9368 564.603 82.4023C565.068 82.8607 565.301 83.4193 565.301 84.0781C565.301 84.7441 565.068 85.3099 564.603 85.7754C564.144 86.2409 563.582 86.4736 562.916 86.4736ZM562.916 85.4102C563.274 85.4102 563.582 85.2777 563.84 85.0127C564.105 84.7477 564.237 84.4398 564.237 84.0889C564.237 83.7308 564.105 83.4193 563.84 83.1543C563.582 82.8893 563.274 82.7568 562.916 82.7568C562.565 82.7568 562.257 82.8893 561.992 83.1543C561.727 83.4193 561.595 83.7308 561.595 84.0889C561.595 84.4398 561.727 84.7477 561.992 85.0127C562.257 85.2777 562.565 85.4102 562.916 85.4102ZM579.942 97.1836C578.374 97.9928 576.662 98.3975 574.808 98.3975C572.337 98.3975 570.428 97.6742 569.082 96.2275C567.736 94.7809 567.062 92.7256 567.062 90.0615C567.062 87.4046 567.746 85.3493 569.114 83.8955C570.489 82.4346 572.426 81.7041 574.926 81.7041C576.344 81.7041 578.009 81.9368 579.921 82.4023V84.5186C577.744 83.7666 576.064 83.3906 574.883 83.3906C573.157 83.3906 571.821 83.9743 570.876 85.1416C569.931 86.3089 569.458 87.9561 569.458 90.083C569.458 92.1169 569.963 93.7174 570.973 94.8848C571.982 96.0521 573.365 96.6357 575.119 96.6357C576.616 96.6357 578.224 96.1738 579.942 95.25V97.1836Z" fill="white" fill-opacity="0.7"/>
<path d="M595 100.099C595 102.218 595.772 104.05 597.317 105.595C598.876 107.153 600.715 107.933 602.834 107.933H617.825C619.944 107.933 621.756 107.167 623.26 105.636C624.777 104.104 625.536 102.259 625.536 100.099C625.536 99.0459 625.386 98.1504 625.085 97.4121C626.903 96.25 628.339 94.7051 629.392 92.7773C630.458 90.8359 630.991 88.7646 630.991 86.5635C630.991 84.7861 630.643 83.0908 629.945 81.4775C629.262 79.8506 628.332 78.4561 627.156 77.2939C625.98 76.1182 624.586 75.1816 622.973 74.4844C621.359 73.7871 619.671 73.4385 617.907 73.4385C615.515 73.4385 613.307 74.0264 611.283 75.2021C609.273 76.3779 607.688 77.9707 606.525 79.9805C605.377 81.9902 604.803 84.1846 604.803 86.5635V87.3018C602.602 88.5596 601.152 90.3779 600.455 92.7568C598.801 93.2764 597.475 94.1992 596.477 95.5254C595.492 96.8516 595 98.376 595 100.099ZM599.327 100.099C599.327 99.1826 599.621 98.3965 600.209 97.7402C600.797 97.084 601.542 96.7148 602.444 96.6328L603.818 96.4482C604.092 96.4482 604.229 96.2842 604.229 95.9561L604.454 94.7256C604.604 93.4678 605.131 92.415 606.033 91.5674C606.949 90.7197 608.029 90.2959 609.273 90.2959C610.545 90.2959 611.646 90.7197 612.575 91.5674C613.519 92.415 614.065 93.4678 614.216 94.7256L614.4 96.1406C614.537 96.4688 614.722 96.6328 614.954 96.6328H617.825C618.769 96.6328 619.582 96.9746 620.266 97.6582C620.963 98.3418 621.312 99.1553 621.312 100.099C621.312 101.083 620.963 101.924 620.266 102.621C619.582 103.318 618.769 103.667 617.825 103.667H602.834C601.85 103.667 601.016 103.318 600.332 102.621C599.662 101.924 599.327 101.083 599.327 100.099ZM609.007 86.1123C609.157 83.7197 610.08 81.71 611.775 80.083C613.484 78.4561 615.528 77.6426 617.907 77.6426C620.341 77.6426 622.405 78.5107 624.101 80.2471C625.81 81.9834 626.664 84.0889 626.664 86.5635C626.664 88.0947 626.295 89.5166 625.557 90.8291C624.818 92.1279 623.813 93.1807 622.542 93.9873C621.257 92.9209 619.773 92.3877 618.092 92.3877C617.449 90.4736 616.321 88.9492 614.708 87.8145C613.108 86.6797 611.297 86.1123 609.273 86.1123H609.007Z" fill="white" fill-opacity="0.7"/>
<path d="M550.756 49.6992V47.4648C552.546 48.2956 554.021 48.7109 555.182 48.7109C556.062 48.7109 556.771 48.4782 557.309 48.0127C557.853 47.54 558.125 46.9277 558.125 46.1758C558.125 45.5527 557.946 45.0228 557.588 44.5859C557.237 44.1491 556.585 43.6621 555.633 43.125L554.537 42.4912C553.184 41.7178 552.228 40.9909 551.669 40.3105C551.118 39.623 550.842 38.8281 550.842 37.9258C550.842 36.694 551.286 35.6842 552.174 34.8965C553.062 34.1016 554.193 33.7041 555.568 33.7041C556.793 33.7041 558.086 33.9082 559.446 34.3164V36.3789C557.771 35.7201 556.521 35.3906 555.697 35.3906C554.917 35.3906 554.272 35.5983 553.764 36.0137C553.255 36.429 553.001 36.9518 553.001 37.582C553.001 38.112 553.187 38.5811 553.56 38.9893C553.932 39.3975 554.612 39.8844 555.601 40.4502L556.739 41.0947C558.114 41.8753 559.074 42.613 559.618 43.3076C560.162 44.0023 560.435 44.8366 560.435 45.8105C560.435 47.1927 559.926 48.3027 558.909 49.1406C557.892 49.9785 556.542 50.3975 554.859 50.3975C553.785 50.3975 552.417 50.1647 550.756 49.6992ZM564.334 54.2432L566.225 50L561.713 38.334H564.001L567.342 47.1211L570.908 38.334H572.906L566.536 54.2432H564.334ZM582.639 50V47.8086C581.779 49.4486 580.483 50.2686 578.75 50.2686C577.346 50.2686 576.24 49.7565 575.431 48.7324C574.629 47.7083 574.228 46.3083 574.228 44.5322C574.228 42.5915 574.682 41.0303 575.592 39.8486C576.508 38.667 577.712 38.0762 579.201 38.0762C580.583 38.0762 581.729 38.6061 582.639 39.666V33.0381H584.766V50H582.639ZM582.639 41.1162C581.543 40.1494 580.505 39.666 579.523 39.666C578.557 39.666 577.808 40.0706 577.278 40.8799C576.748 41.6891 576.483 42.835 576.483 44.3174C576.483 47.0459 577.386 48.4102 579.19 48.4102C580.365 48.4102 581.514 47.7692 582.639 46.4873V41.1162ZM589.009 50V38.334H591.125V40.5254C592.242 38.8926 593.61 38.0762 595.229 38.0762C596.245 38.0762 597.051 38.3984 597.646 39.043C598.247 39.6803 598.548 40.5397 598.548 41.6211V50H596.432V42.3086C596.432 41.4421 596.303 40.8262 596.045 40.4609C595.794 40.0885 595.375 39.9023 594.788 39.9023C593.492 39.9023 592.271 40.751 591.125 42.4482V50H589.009ZM611.224 49.624C609.806 50.0537 608.592 50.2686 607.582 50.2686C605.856 50.2686 604.452 49.6992 603.371 48.5605C602.29 47.4147 601.749 45.9323 601.749 44.1133C601.749 42.3444 602.225 40.8942 603.178 39.7627C604.137 38.6312 605.362 38.0654 606.852 38.0654C608.262 38.0654 609.351 38.5703 610.117 39.5801C610.891 40.5827 611.277 42.0078 611.277 43.8555L611.267 44.5H603.908C604.216 47.2715 605.573 48.6572 607.979 48.6572C608.86 48.6572 609.942 48.4209 611.224 47.9482V49.624ZM604.005 42.9102H609.15C609.15 40.7402 608.341 39.6553 606.723 39.6553C605.097 39.6553 604.191 40.7402 604.005 42.9102ZM615.617 54.2432L617.508 50L612.996 38.334H615.284L618.625 47.1211L622.191 38.334H624.189L617.819 54.2432H615.617Z" fill="white"/>
</g>
</svg>
