<svg width="292" height="147" viewBox="0 0 292 147" fill="none" xmlns="http://www.w3.org/2000/svg">
<g opacity="0.7">
<rect x="1" y="1" width="289.5" height="145" fill="#E2674A" stroke="white" stroke-width="2"/>
<path d="M90.2344 97.8818V95.9053C91.7454 96.5068 92.9342 96.8076 93.8008 96.8076C94.8249 96.8076 95.652 96.514 96.2822 95.9268C96.9196 95.3395 97.2383 94.5732 97.2383 93.6279C97.2383 91.3936 95.6735 90.2764 92.5439 90.2764H91.7061V88.8477L92.4473 88.8369C95.3835 88.8369 96.8516 87.8021 96.8516 85.7324C96.8516 84.1068 95.8776 83.2939 93.9297 83.2939C92.8841 83.2939 91.724 83.5911 90.4492 84.1855V82.3379C91.7025 81.9154 92.9092 81.7041 94.0693 81.7041C95.652 81.7041 96.8659 82.0192 97.7109 82.6494C98.556 83.2796 98.9785 84.1927 98.9785 85.3887C98.9785 87.2578 97.8721 88.5898 95.6592 89.3848C98.223 89.9792 99.5049 91.3828 99.5049 93.5957C99.5049 95.0924 99.0107 96.2669 98.0225 97.1191C97.0342 97.9714 95.6771 98.3975 93.9512 98.3975C92.9701 98.3975 91.7311 98.2256 90.2344 97.8818ZM103.748 98V96.1416C104.364 94.7021 105.61 93.1338 107.486 91.4365L108.7 90.3516C110.261 88.9408 111.042 87.5407 111.042 86.1514C111.042 85.2633 110.773 84.5651 110.236 84.0566C109.706 83.5482 108.972 83.2939 108.034 83.2939C106.938 83.2939 105.642 83.7201 104.146 84.5723V82.7031C105.556 82.0371 106.96 81.7041 108.356 81.7041C109.846 81.7041 111.038 82.1051 111.934 82.9072C112.836 83.7093 113.287 84.7728 113.287 86.0977C113.287 87.0501 113.058 87.8952 112.6 88.6328C112.148 89.3704 111.303 90.2656 110.064 91.3184L109.248 92.0166C107.551 93.4561 106.57 94.8311 106.305 96.1416H113.212V98H103.748ZM118.916 86.4736C118.25 86.4736 117.684 86.2409 117.219 85.7754C116.76 85.3099 116.531 84.7441 116.531 84.0781C116.531 83.4121 116.76 82.8499 117.219 82.3916C117.684 81.9333 118.25 81.7041 118.916 81.7041C119.582 81.7041 120.144 81.9368 120.603 82.4023C121.068 82.8607 121.301 83.4193 121.301 84.0781C121.301 84.7441 121.068 85.3099 120.603 85.7754C120.144 86.2409 119.582 86.4736 118.916 86.4736ZM118.916 85.4102C119.274 85.4102 119.582 85.2777 119.84 85.0127C120.105 84.7477 120.237 84.4398 120.237 84.0889C120.237 83.7308 120.105 83.4193 119.84 83.1543C119.582 82.8893 119.274 82.7568 118.916 82.7568C118.565 82.7568 118.257 82.8893 117.992 83.1543C117.727 83.4193 117.595 83.7308 117.595 84.0889C117.595 84.4398 117.727 84.7477 117.992 85.0127C118.257 85.2777 118.565 85.4102 118.916 85.4102ZM135.942 97.1836C134.374 97.9928 132.662 98.3975 130.808 98.3975C128.337 98.3975 126.428 97.6742 125.082 96.2275C123.736 94.7809 123.062 92.7256 123.062 90.0615C123.062 87.4046 123.746 85.3493 125.114 83.8955C126.489 82.4346 128.426 81.7041 130.926 81.7041C132.344 81.7041 134.009 81.9368 135.921 82.4023V84.5186C133.744 83.7666 132.064 83.3906 130.883 83.3906C129.157 83.3906 127.821 83.9743 126.876 85.1416C125.931 86.3089 125.458 87.9561 125.458 90.083C125.458 92.1169 125.963 93.7174 126.973 94.8848C127.982 96.0521 129.365 96.6357 131.119 96.6357C132.616 96.6357 134.224 96.1738 135.942 95.25V97.1836Z" fill="white" fill-opacity="0.7"/>
<path d="M155 89.4756C155 88.9561 155.198 88.5117 155.595 88.1426C155.964 87.7734 156.415 87.5889 156.948 87.5889H161.46C161.979 87.5889 162.417 87.7734 162.772 88.1426C163.142 88.5117 163.326 88.9561 163.326 89.4756C163.326 90.0225 163.142 90.4805 162.772 90.8496C162.417 91.2188 161.979 91.4033 161.46 91.4033H156.948C156.401 91.4033 155.937 91.2188 155.554 90.8496C155.185 90.4805 155 90.0225 155 89.4756ZM161.398 74.1357C161.398 73.6299 161.576 73.1787 161.932 72.7822C162.342 72.4131 162.82 72.2285 163.367 72.2285C163.832 72.2285 164.263 72.4131 164.659 72.7822L167.838 76.0225C168.207 76.3643 168.392 76.8018 168.392 77.335C168.392 77.8545 168.207 78.2988 167.838 78.668C167.482 79.0234 167.052 79.2012 166.546 79.2012C165.985 79.2012 165.541 79.0166 165.213 78.6475L161.932 75.4893C161.576 75.1064 161.398 74.6553 161.398 74.1357ZM167.1 89.4756C167.1 87.9307 167.407 86.4473 168.022 85.0254C168.651 83.5898 169.485 82.3594 170.524 81.334C171.577 80.2949 172.821 79.4678 174.257 78.8525C175.692 78.2236 177.189 77.9092 178.748 77.9092C180.84 77.9092 182.781 78.4355 184.572 79.4883C186.363 80.5273 187.778 81.9355 188.817 83.7129C189.856 85.4902 190.376 87.4111 190.376 89.4756C190.376 89.8037 190.355 90.1113 190.314 90.3984C189.699 90.0293 188.995 89.8447 188.202 89.8447C187.669 89.8447 187.143 89.9541 186.623 90.1729C186.637 90.0225 186.644 89.79 186.644 89.4756C186.644 87.3428 185.871 85.5244 184.326 84.0205C182.781 82.5029 180.922 81.7441 178.748 81.7441C176.588 81.7441 174.735 82.5029 173.19 84.0205C171.659 85.5244 170.894 87.3428 170.894 89.4756V89.8652C170.251 89.9062 169.636 90.0908 169.048 90.4189C169.034 90.4326 168.959 90.4873 168.822 90.583C168.686 90.6787 168.549 90.7812 168.412 90.8906C168.275 90.9863 168.104 91.123 167.899 91.3008C167.694 91.4648 167.503 91.6357 167.325 91.8135C167.175 91.1162 167.1 90.3369 167.1 89.4756ZM167.161 97.4736V97.1455C167.147 96.9404 167.161 96.7012 167.202 96.4277C167.312 95.6484 167.619 94.9033 168.125 94.1924C168.412 93.8369 168.61 93.6113 168.72 93.5156C168.733 93.4746 168.761 93.4336 168.802 93.3926C168.843 93.3516 168.87 93.3242 168.884 93.3105C168.938 93.2832 169.027 93.208 169.15 93.085C169.191 93.0303 169.246 92.9756 169.314 92.9209C169.396 92.8662 169.451 92.8252 169.479 92.7979C169.588 92.6885 169.69 92.6133 169.786 92.5723L170.155 92.3262C170.47 92.1211 170.832 92.0186 171.242 92.0186H171.304C171.522 92.0186 171.714 92.0391 171.878 92.0801C171.946 92.1074 172.042 92.1553 172.165 92.2236V92.2441C172.479 92.3809 172.726 92.5928 172.903 92.8799C173.095 93.1533 173.19 93.4541 173.19 93.7822C173.19 94.1514 173.088 94.459 172.883 94.7051C172.746 94.8965 172.582 95.0674 172.391 95.2178C172.35 95.2314 172.302 95.252 172.247 95.2793C172.206 95.3066 172.179 95.3203 172.165 95.3203L172.042 95.4023C171.96 95.4707 171.885 95.5322 171.816 95.5869C171.762 95.6416 171.687 95.7236 171.591 95.833C171.495 95.9287 171.413 96.0244 171.345 96.1201C171.276 96.2158 171.208 96.332 171.14 96.4688C171.085 96.5918 171.051 96.7148 171.037 96.8379V97.125V97.166C171.119 97.4941 171.201 97.7539 171.283 97.9453C171.434 98.2461 171.68 98.5674 172.021 98.9092C172.049 98.9502 172.227 99.1348 172.555 99.4629C174.441 101.172 175.323 102.997 175.2 104.938C175.159 105.595 175.002 106.224 174.729 106.825C174.469 107.44 174.161 107.953 173.806 108.363C173.45 108.787 173.163 109.102 172.944 109.307C172.726 109.512 172.541 109.662 172.391 109.758C172.377 109.771 172.336 109.799 172.268 109.84C172.199 109.895 172.145 109.929 172.104 109.942C171.926 110.024 171.769 110.072 171.632 110.086C171.44 110.113 171.297 110.127 171.201 110.127C170.545 110.127 170.025 109.908 169.643 109.471C169.328 109.088 169.198 108.657 169.253 108.179C169.308 107.7 169.547 107.311 169.971 107.01L170.012 106.969C170.039 106.941 170.073 106.907 170.114 106.866C170.155 106.839 170.203 106.798 170.258 106.743C170.326 106.688 170.388 106.627 170.442 106.559C170.511 106.49 170.572 106.415 170.627 106.333C170.695 106.251 170.757 106.162 170.812 106.066C170.88 105.984 170.941 105.889 170.996 105.779C171.064 105.67 171.119 105.561 171.16 105.451C171.201 105.342 171.235 105.219 171.263 105.082C171.29 104.959 171.304 104.836 171.304 104.713C171.345 104.275 171.235 103.838 170.976 103.4C170.866 103.168 170.702 102.929 170.483 102.683C170.333 102.505 170.224 102.389 170.155 102.334C169.95 102.088 169.841 101.958 169.827 101.944C169.786 101.917 169.731 101.876 169.663 101.821C169.608 101.767 169.567 101.732 169.54 101.719C169.212 101.418 168.966 101.158 168.802 100.939C168.528 100.598 168.351 100.365 168.269 100.242C167.845 99.668 167.558 99.1006 167.407 98.54C167.312 98.2256 167.257 97.9932 167.243 97.8428C167.243 97.8018 167.229 97.7471 167.202 97.6787C167.175 97.5967 167.161 97.5283 167.161 97.4736ZM175.651 96.7354C175.651 96.6123 175.658 96.5098 175.672 96.4277C175.727 95.9492 175.87 95.4844 176.103 95.0332C176.335 94.5684 176.588 94.1787 176.861 93.8643C177.148 93.5498 177.422 93.2764 177.682 93.0439C177.955 92.7979 178.188 92.6133 178.379 92.4902L178.646 92.3262C178.974 92.1211 179.336 92.0186 179.732 92.0186C179.979 92.0186 180.197 92.0391 180.389 92.0801C180.402 92.0801 180.437 92.1006 180.491 92.1416C180.56 92.1689 180.607 92.1963 180.635 92.2236C180.662 92.2236 180.683 92.2305 180.696 92.2441C180.71 92.2441 180.765 92.2783 180.86 92.3467C181.298 92.6064 181.571 93.0029 181.681 93.5361C181.681 93.5771 181.681 93.625 181.681 93.6797C181.694 93.7344 181.701 93.7686 181.701 93.7822C181.701 93.8506 181.688 93.9395 181.66 94.0488C181.633 94.1445 181.619 94.2061 181.619 94.2334C181.469 94.7256 181.161 95.0879 180.696 95.3203C179.972 95.7988 179.589 96.3047 179.548 96.8379C179.534 97.0156 179.534 97.1729 179.548 97.3096C179.603 97.5693 179.726 97.8564 179.917 98.1709C180.163 98.5264 180.341 98.7588 180.45 98.8682C180.792 99.21 180.997 99.4082 181.065 99.4629C181.339 99.709 181.681 100.078 182.091 100.57C183.28 101.992 183.82 103.448 183.711 104.938C183.67 105.595 183.513 106.23 183.239 106.846C182.979 107.461 182.672 107.967 182.316 108.363C181.961 108.773 181.667 109.088 181.435 109.307C181.202 109.525 181.018 109.676 180.881 109.758L180.614 109.942C180.382 110.024 180.231 110.072 180.163 110.086C179.917 110.113 179.773 110.127 179.732 110.127H179.671C179.493 110.127 179.356 110.113 179.261 110.086C179.22 110.086 179.158 110.072 179.076 110.045C179.008 110.031 178.96 110.024 178.933 110.024C178.919 110.024 178.898 110.018 178.871 110.004C178.844 109.99 178.816 109.97 178.789 109.942C178.762 109.929 178.741 109.922 178.728 109.922C178.399 109.689 178.208 109.539 178.153 109.471C177.812 109.074 177.675 108.637 177.743 108.158C177.812 107.693 178.058 107.311 178.481 107.01L178.543 106.928C178.598 106.887 178.659 106.825 178.728 106.743C178.81 106.675 178.898 106.593 178.994 106.497C179.09 106.401 179.179 106.285 179.261 106.148C179.356 106.012 179.445 105.868 179.527 105.718C179.609 105.581 179.671 105.424 179.712 105.246C179.767 105.068 179.801 104.891 179.814 104.713C179.842 103.838 179.336 102.915 178.297 101.944C177.887 101.575 177.565 101.261 177.333 101.001C176.116 99.5654 175.556 98.1436 175.651 96.7354ZM176.841 72.3311V67.7988C176.841 67.2656 177.025 66.8145 177.395 66.4453C177.777 66.0762 178.229 65.8916 178.748 65.8916C179.281 65.8916 179.732 66.0762 180.102 66.4453C180.471 66.8145 180.655 67.2656 180.655 67.7988V72.3311C180.655 72.8506 180.471 73.2812 180.102 73.623C179.732 73.9648 179.281 74.1357 178.748 74.1357C178.229 74.1357 177.777 73.9648 177.395 73.623C177.025 73.2812 176.841 72.8506 176.841 72.3311ZM184.183 96.4277C184.237 95.9492 184.381 95.4844 184.613 95.0332C184.846 94.5684 185.099 94.1787 185.372 93.8643C185.659 93.5498 185.933 93.2764 186.192 93.0439C186.466 92.7979 186.691 92.6133 186.869 92.4902L187.156 92.3262C187.211 92.2852 187.286 92.2305 187.382 92.1621C187.628 92.0664 187.901 92.0186 188.202 92.0186C188.94 92.0186 189.501 92.2988 189.884 92.8594C189.993 93.0098 190.068 93.1738 190.109 93.3516C190.137 93.4062 190.15 93.4678 190.15 93.5361V93.7822C190.15 94.4658 189.822 94.9785 189.166 95.3203C188.469 95.7852 188.086 96.291 188.018 96.8379C187.936 97.5762 188.435 98.4512 189.515 99.4629C191.429 101.158 192.324 102.983 192.201 104.938C192.16 105.595 192.003 106.224 191.729 106.825C191.47 107.44 191.155 107.953 190.786 108.363C190.431 108.787 190.144 109.102 189.925 109.307C189.72 109.512 189.542 109.662 189.392 109.758C189.036 109.977 188.735 110.093 188.489 110.106C188.421 110.12 188.312 110.127 188.161 110.127C187.505 110.127 186.999 109.908 186.644 109.471C186.315 109.088 186.179 108.657 186.233 108.179C186.288 107.7 186.521 107.311 186.931 107.01C186.999 106.982 187.129 106.88 187.32 106.702C187.512 106.524 187.717 106.244 187.936 105.861C188.168 105.479 188.298 105.096 188.325 104.713C188.366 103.838 187.854 102.915 186.787 101.944C185.885 101.151 185.201 100.304 184.736 99.4014C184.244 98.4443 184.06 97.4531 184.183 96.4277ZM189.187 77.335C189.187 76.7881 189.351 76.3506 189.679 76.0225L192.878 72.7822C193.274 72.4131 193.719 72.2285 194.211 72.2285C194.73 72.2285 195.175 72.4199 195.544 72.8027C195.927 73.1719 196.118 73.6162 196.118 74.1357C196.118 74.6826 195.927 75.1338 195.544 75.4893L192.304 78.6475C191.907 79.0166 191.463 79.2012 190.971 79.2012C190.465 79.2012 190.041 79.0234 189.699 78.668C189.357 78.2988 189.187 77.8545 189.187 77.335ZM194.231 89.4756C194.231 88.9971 194.423 88.5527 194.806 88.1426C195.147 87.7734 195.571 87.5889 196.077 87.5889H200.589C201.108 87.5889 201.56 87.7803 201.942 88.1631C202.339 88.5322 202.537 88.9697 202.537 89.4756C202.537 90.0088 202.346 90.4668 201.963 90.8496C201.58 91.2188 201.122 91.4033 200.589 91.4033H196.077C195.544 91.4033 195.1 91.2188 194.744 90.8496C194.402 90.4805 194.231 90.0225 194.231 89.4756Z" fill="white" fill-opacity="0.7"/>
<path d="M100.394 50V35.7881H94.7539V34.1016H108.289V35.7881H102.649V50H100.394ZM119.149 49.624C117.731 50.0537 116.518 50.2686 115.508 50.2686C113.782 50.2686 112.378 49.6992 111.297 48.5605C110.215 47.4147 109.675 45.9323 109.675 44.1133C109.675 42.3444 110.151 40.8942 111.104 39.7627C112.063 38.6312 113.288 38.0654 114.777 38.0654C116.188 38.0654 117.277 38.5703 118.043 39.5801C118.816 40.5827 119.203 42.0078 119.203 43.8555L119.192 44.5H111.834C112.142 47.2715 113.499 48.6572 115.905 48.6572C116.786 48.6572 117.868 48.4209 119.149 47.9482V49.624ZM111.931 42.9102H117.076C117.076 40.7402 116.267 39.6553 114.648 39.6553C113.023 39.6553 112.117 40.7402 111.931 42.9102ZM122.866 50V33.0381H124.982V50H122.866ZM128.699 44.167V42.8457H138.238V44.167H128.699ZM140.032 50L146.338 34.1016H148.572L154.781 50H152.343L150.613 45.5957H143.878L142.127 50H140.032ZM144.533 43.9199H149.958L147.251 37.0664L144.533 43.9199ZM159.572 50L155.232 38.334H157.349L160.743 47.4111L164.32 38.334H166.297L161.688 50H159.572ZM168.542 50V38.334H170.658V50H168.542ZM168.542 36.2178V34.1016H170.658V36.2178H168.542ZM177.318 50L172.979 38.334H175.095L178.489 47.4111L182.066 38.334H184.043L179.435 50H177.318ZM194.839 49.624C193.421 50.0537 192.207 50.2686 191.197 50.2686C189.471 50.2686 188.068 49.6992 186.986 48.5605C185.905 47.4147 185.364 45.9323 185.364 44.1133C185.364 42.3444 185.84 40.8942 186.793 39.7627C187.753 38.6312 188.977 38.0654 190.467 38.0654C191.878 38.0654 192.966 38.5703 193.732 39.5801C194.506 40.5827 194.893 42.0078 194.893 43.8555L194.882 44.5H187.523C187.831 47.2715 189.188 48.6572 191.595 48.6572C192.476 48.6572 193.557 48.4209 194.839 47.9482V49.624ZM187.62 42.9102H192.766C192.766 40.7402 191.956 39.6553 190.338 39.6553C188.712 39.6553 187.806 40.7402 187.62 42.9102Z" fill="white"/>
</g>
</svg>
