<svg width="292" height="147" viewBox="0 0 292 147" fill="none" xmlns="http://www.w3.org/2000/svg">
<g opacity="0.7">
<rect x="1" y="1" width="289.5" height="145" fill="#669999" stroke="white" stroke-width="2"/>
<path d="M97.7578 98V83.6914H95.2441V82.3594L99.8848 81.9619V98H97.7578ZM109.23 98C109.438 96.7611 109.732 95.6904 110.111 94.7881C110.498 93.8857 111.178 92.6468 112.152 91.0713L116.492 84.0889H108.307V82.1016H118.512V84.0889C114.437 90.0973 112.156 94.7344 111.669 98H109.23ZM122.916 86.4736C122.25 86.4736 121.684 86.2409 121.219 85.7754C120.76 85.3099 120.531 84.7441 120.531 84.0781C120.531 83.4121 120.76 82.8499 121.219 82.3916C121.684 81.9333 122.25 81.7041 122.916 81.7041C123.582 81.7041 124.144 81.9368 124.603 82.4023C125.068 82.8607 125.301 83.4193 125.301 84.0781C125.301 84.7441 125.068 85.3099 124.603 85.7754C124.144 86.2409 123.582 86.4736 122.916 86.4736ZM122.916 85.4102C123.274 85.4102 123.582 85.2777 123.84 85.0127C124.105 84.7477 124.237 84.4398 124.237 84.0889C124.237 83.7308 124.105 83.4193 123.84 83.1543C123.582 82.8893 123.274 82.7568 122.916 82.7568C122.565 82.7568 122.257 82.8893 121.992 83.1543C121.727 83.4193 121.595 83.7308 121.595 84.0889C121.595 84.4398 121.727 84.7477 121.992 85.0127C122.257 85.2777 122.565 85.4102 122.916 85.4102ZM139.942 97.1836C138.374 97.9928 136.662 98.3975 134.808 98.3975C132.337 98.3975 130.428 97.6742 129.082 96.2275C127.736 94.7809 127.062 92.7256 127.062 90.0615C127.062 87.4046 127.746 85.3493 129.114 83.8955C130.489 82.4346 132.426 81.7041 134.926 81.7041C136.344 81.7041 138.009 81.9368 139.921 82.4023V84.5186C137.744 83.7666 136.064 83.3906 134.883 83.3906C133.157 83.3906 131.821 83.9743 130.876 85.1416C129.931 86.3089 129.458 87.9561 129.458 90.083C129.458 92.1169 129.963 93.7174 130.973 94.8848C131.982 96.0521 133.365 96.6357 135.119 96.6357C136.616 96.6357 138.224 96.1738 139.942 95.25V97.1836Z" fill="white" fill-opacity="0.7"/>
<path d="M154 94.2334C154 96.6807 154.711 98.8613 156.133 100.775C157.568 102.676 159.435 103.975 161.731 104.672C161.923 104.713 162.101 104.658 162.265 104.508L164.808 101.37C162.866 101.37 161.205 100.673 159.824 99.2783C158.443 97.8838 157.753 96.2021 157.753 94.2334C157.753 92.3877 158.368 90.7881 159.599 89.4346C160.829 88.0674 162.36 87.3086 164.192 87.1582L165.341 87.0146C165.573 87.0146 165.689 86.9189 165.689 86.7275L165.854 85.5176C166.127 83.1113 167.139 81.1221 168.889 79.5498C170.652 77.9639 172.73 77.1709 175.123 77.1709C177.529 77.1709 179.621 77.9707 181.398 79.5703C183.189 81.1562 184.194 83.1387 184.413 85.5176L184.577 86.7891C184.632 87.0352 184.789 87.1582 185.049 87.1582H188.597C190.565 87.1582 192.24 87.8486 193.621 89.2295C195.002 90.6104 195.692 92.2783 195.692 94.2334C195.692 96.0518 195.077 97.6445 193.847 99.0117C192.616 100.365 191.105 101.151 189.314 101.37C189.055 101.37 188.699 101.411 188.248 101.493C187.824 101.534 187.523 101.698 187.346 101.985L182.178 108.097C181.863 108.493 181.74 108.951 181.809 109.471C181.891 109.99 182.123 110.407 182.506 110.722C182.738 110.995 183.148 111.132 183.736 111.132C184.311 111.132 184.755 110.879 185.069 110.373L189.704 105.041C192.425 104.768 194.722 103.592 196.595 101.514C198.468 99.4355 199.404 97.0088 199.404 94.2334C199.404 92.7568 199.117 91.3486 198.543 90.0088C197.982 88.6689 197.217 87.5205 196.246 86.5635C195.289 85.5928 194.141 84.8203 192.801 84.2461C191.475 83.6719 190.073 83.3848 188.597 83.3848H187.899C187.175 80.4863 185.623 78.1143 183.244 76.2686C180.879 74.4092 178.172 73.4795 175.123 73.4795C173.086 73.4795 171.165 73.917 169.36 74.792C167.569 75.6533 166.059 76.8633 164.828 78.4219C163.598 79.9668 162.771 81.7305 162.347 83.7129C159.886 84.2598 157.876 85.5176 156.317 87.4863C154.772 89.4414 154 91.6904 154 94.2334ZM161.403 111.768C161.403 111.904 161.444 112.123 161.526 112.424C161.718 112.889 162.039 113.21 162.49 113.388C162.969 113.606 163.454 113.62 163.946 113.429C164.438 113.237 164.773 112.909 164.951 112.444C165.17 111.966 165.184 111.494 164.992 111.029C164.801 110.564 164.466 110.25 163.987 110.086C163.495 109.854 163.023 109.833 162.572 110.024C162.121 110.216 161.786 110.558 161.567 111.05C161.458 111.282 161.403 111.521 161.403 111.768ZM165.443 106.436V106.661C165.484 107.153 165.703 107.563 166.1 107.892C166.592 108.165 167.043 108.302 167.453 108.302C167.945 108.302 168.39 108.062 168.786 107.584L173.872 101.534C174.187 101.151 174.33 100.673 174.303 100.099C174.248 99.6338 174.043 99.2441 173.688 98.9297C173.346 98.6152 172.97 98.458 172.56 98.458C172.437 98.458 172.334 98.4648 172.252 98.4785C171.746 98.5742 171.336 98.8135 171.021 99.1963L165.854 105.267C165.58 105.581 165.443 105.971 165.443 106.436ZM167.289 116.054C167.18 116.259 167.125 116.491 167.125 116.751C167.125 117.011 167.18 117.243 167.289 117.448C167.467 117.913 167.788 118.255 168.253 118.474C168.485 118.583 168.725 118.638 168.971 118.638C169.244 118.638 169.47 118.583 169.647 118.474C170.153 118.269 170.495 117.968 170.673 117.571C170.892 117.093 170.905 116.607 170.714 116.115C170.536 115.623 170.215 115.288 169.75 115.11C169.271 114.892 168.779 114.878 168.273 115.069C167.781 115.261 167.453 115.589 167.289 116.054ZM170.775 111.624V111.87C170.83 112.349 171.056 112.745 171.452 113.06C171.849 113.388 172.252 113.552 172.662 113.552C173.154 113.552 173.612 113.312 174.036 112.834L183.552 101.37C183.798 101.097 183.921 100.721 183.921 100.242V99.9756C183.866 99.4834 183.668 99.0938 183.326 98.8066C182.984 98.5195 182.602 98.376 182.178 98.376H181.891C181.385 98.4033 180.981 98.6289 180.681 99.0527L171.165 110.435C170.905 110.817 170.775 111.214 170.775 111.624ZM178.466 114.146C178.466 114.338 178.507 114.557 178.589 114.803C178.78 115.281 179.115 115.623 179.594 115.828C179.895 115.91 180.12 115.951 180.271 115.951C180.585 115.951 180.831 115.896 181.009 115.787C181.501 115.596 181.836 115.288 182.014 114.864C182.232 114.495 182.246 114.01 182.055 113.408C181.877 112.957 181.556 112.636 181.091 112.444L180.312 112.239C180.12 112.28 179.888 112.335 179.614 112.403C179.136 112.581 178.808 112.902 178.63 113.367C178.521 113.627 178.466 113.887 178.466 114.146Z" fill="white" fill-opacity="0.7"/>
<path d="M90.876 50V34.1016H93.0889L101.092 46.3799V34.1016H103.025V50H100.823L92.8096 37.7217V50H90.876ZM115.755 49.624C114.337 50.0537 113.123 50.2686 112.113 50.2686C110.387 50.2686 108.984 49.6992 107.902 48.5605C106.821 47.4147 106.28 45.9323 106.28 44.1133C106.28 42.3444 106.757 40.8942 107.709 39.7627C108.669 38.6312 109.893 38.0654 111.383 38.0654C112.794 38.0654 113.882 38.5703 114.648 39.5801C115.422 40.5827 115.809 42.0078 115.809 43.8555L115.798 44.5H108.439C108.747 47.2715 110.104 48.6572 112.511 48.6572C113.392 48.6572 114.473 48.4209 115.755 47.9482V49.624ZM108.536 42.9102H113.682C113.682 40.7402 112.872 39.6553 111.254 39.6553C109.628 39.6553 108.722 40.7402 108.536 42.9102ZM120.825 50L117.484 38.334H119.558L122.114 47.3682L124.875 38.334H126.991L129.408 47.3682L132.341 38.334H134.156L130.354 50H128.227L125.756 40.9658L122.963 50H120.825ZM135.896 44.167V42.8457H145.436V44.167H135.896ZM149.099 50V34.1016H154.384C155.959 34.1016 157.23 34.277 158.197 34.6279C159.171 34.9788 160.013 35.5732 160.722 36.4111C161.846 37.7432 162.408 39.4977 162.408 41.6748C162.408 44.1312 161.749 46.1221 160.432 47.6475C159.715 48.4854 158.885 49.0869 157.939 49.4521C157.001 49.8174 155.827 50 154.416 50H149.099ZM151.354 48.3135H154.244C156.307 48.3135 157.768 47.7585 158.627 46.6484C159.551 45.4668 160.013 43.8805 160.013 41.8896C160.013 40.0205 159.558 38.5524 158.648 37.4854C158.097 36.8337 157.438 36.3896 156.672 36.1533C155.906 35.9098 154.753 35.7881 153.213 35.7881H151.354V48.3135ZM174.192 49.624C172.774 50.0537 171.561 50.2686 170.551 50.2686C168.825 50.2686 167.421 49.6992 166.34 48.5605C165.258 47.4147 164.718 45.9323 164.718 44.1133C164.718 42.3444 165.194 40.8942 166.146 39.7627C167.106 38.6312 168.331 38.0654 169.82 38.0654C171.231 38.0654 172.32 38.5703 173.086 39.5801C173.859 40.5827 174.246 42.0078 174.246 43.8555L174.235 44.5H166.877C167.185 47.2715 168.542 48.6572 170.948 48.6572C171.829 48.6572 172.91 48.4209 174.192 47.9482V49.624ZM166.974 42.9102H172.119C172.119 40.7402 171.31 39.6553 169.691 39.6553C168.066 39.6553 167.16 40.7402 166.974 42.9102ZM177.909 50V33.0381H180.025V50H177.909ZM184.269 50V33.0381H186.385V40.5254C187.502 38.8926 188.87 38.0762 190.488 38.0762C191.505 38.0762 192.311 38.3984 192.905 39.043C193.507 39.6803 193.808 40.5397 193.808 41.6211V50H191.691V42.3086C191.691 41.4421 191.562 40.8262 191.305 40.4609C191.054 40.0885 190.635 39.9023 190.048 39.9023C188.752 39.9023 187.531 40.751 186.385 42.4482V50H184.269ZM197.933 50V38.334H200.049V50H197.933ZM197.933 36.2178V34.1016H200.049V36.2178H197.933Z" fill="white"/>
</g>
</svg>
