<svg width="292" height="147" viewBox="0 0 292 147" fill="none" xmlns="http://www.w3.org/2000/svg">
<g opacity="0.7">
<rect x="1" y="1" width="289.5" height="145" fill="#339966" stroke="white" stroke-width="2"/>
<path d="M104.06 89.3418C103.186 88.7331 102.577 88.1673 102.233 87.6445C101.897 87.1217 101.729 86.4915 101.729 85.7539C101.729 84.5508 102.169 83.5732 103.05 82.8213C103.931 82.0693 105.08 81.6934 106.498 81.6934C107.809 81.6934 108.868 82.012 109.678 82.6494C110.494 83.2868 110.902 84.1139 110.902 85.1309C110.902 86.6706 109.914 88.0742 107.938 89.3418C110.337 90.5163 111.536 92.0309 111.536 93.8857C111.536 95.2106 111.035 96.2956 110.032 97.1406C109.03 97.9785 107.741 98.3975 106.165 98.3975C104.59 98.3975 103.318 98.0036 102.352 97.2158C101.385 96.4209 100.901 95.3789 100.901 94.0898C100.901 92.1849 101.954 90.6022 104.06 89.3418ZM106.756 88.6758C108.238 87.7018 108.979 86.6169 108.979 85.4209C108.979 84.7835 108.729 84.2715 108.228 83.8848C107.733 83.4909 107.085 83.2939 106.283 83.2939C105.503 83.2939 104.869 83.4873 104.382 83.874C103.895 84.2536 103.651 84.7477 103.651 85.3564C103.651 85.9508 103.87 86.4844 104.307 86.957C104.751 87.4297 105.567 88.0026 106.756 88.6758ZM105.209 90.2012C104.357 90.86 103.777 91.4365 103.469 91.9307C103.168 92.4176 103.018 93.0264 103.018 93.7568C103.018 94.6663 103.311 95.404 103.898 95.9697C104.486 96.5283 105.259 96.8076 106.219 96.8076C107.143 96.8076 107.895 96.5677 108.475 96.0879C109.062 95.6081 109.355 94.985 109.355 94.2188C109.355 93.6029 109.173 93.0837 108.808 92.6611C108.45 92.2314 107.751 91.7087 106.713 91.0928L105.209 90.2012ZM115.994 86.4736C115.328 86.4736 114.762 86.2409 114.297 85.7754C113.839 85.3099 113.609 84.7441 113.609 84.0781C113.609 83.4121 113.839 82.8499 114.297 82.3916C114.762 81.9333 115.328 81.7041 115.994 81.7041C116.66 81.7041 117.222 81.9368 117.681 82.4023C118.146 82.8607 118.379 83.4193 118.379 84.0781C118.379 84.7441 118.146 85.3099 117.681 85.7754C117.222 86.2409 116.66 86.4736 115.994 86.4736ZM115.994 85.4102C116.352 85.4102 116.66 85.2777 116.918 85.0127C117.183 84.7477 117.315 84.4398 117.315 84.0889C117.315 83.7308 117.183 83.4193 116.918 83.1543C116.66 82.8893 116.352 82.7568 115.994 82.7568C115.643 82.7568 115.335 82.8893 115.07 83.1543C114.805 83.4193 114.673 83.7308 114.673 84.0889C114.673 84.4398 114.805 84.7477 115.07 85.0127C115.335 85.2777 115.643 85.4102 115.994 85.4102ZM133.021 97.1836C131.452 97.9928 129.741 98.3975 127.886 98.3975C125.415 98.3975 123.507 97.6742 122.16 96.2275C120.814 94.7809 120.141 92.7256 120.141 90.0615C120.141 87.4046 120.825 85.3493 122.192 83.8955C123.567 82.4346 125.505 81.7041 128.004 81.7041C129.422 81.7041 131.087 81.9368 132.999 82.4023V84.5186C130.822 83.7666 129.143 83.3906 127.961 83.3906C126.235 83.3906 124.899 83.9743 123.954 85.1416C123.009 86.3089 122.536 87.9561 122.536 90.083C122.536 92.1169 123.041 93.7174 124.051 94.8848C125.061 96.0521 126.443 96.6357 128.197 96.6357C129.694 96.6357 131.302 96.1738 133.021 95.25V97.1836Z" fill="white" fill-opacity="0.7"/>
<path d="M162 88.8809C162 86.7891 162.41 84.7861 163.23 82.8721C164.051 80.958 165.151 79.3105 166.532 77.9297C167.927 76.5352 169.581 75.4277 171.495 74.6074C173.423 73.7734 175.433 73.3564 177.524 73.3564H180.026C180.368 73.4521 180.539 73.6572 180.539 73.9717L180.642 75.8994C180.724 78.6748 181.722 81.04 183.636 82.9951C185.55 84.9502 187.874 85.9824 190.608 86.0918L192.413 86.2354C192.769 86.2354 192.946 86.4062 192.946 86.748V88.8809C192.96 91.6836 192.276 94.2812 190.896 96.6738C189.528 99.0527 187.655 100.939 185.276 102.334C182.911 103.715 180.327 104.405 177.524 104.405C175.392 104.405 173.361 103.995 171.434 103.175C169.52 102.354 167.872 101.254 166.491 99.873C165.124 98.4785 164.03 96.8242 163.21 94.9102C162.403 92.9961 162 90.9863 162 88.8809ZM165.999 88.8809C165.999 90.5488 166.327 92.1211 166.983 93.5977C167.653 95.0742 168.521 96.3115 169.588 97.3096C170.668 98.3076 171.898 99.1006 173.279 99.6885C174.674 100.263 176.089 100.55 177.524 100.55C178.796 100.55 180.074 100.304 181.359 99.8115C182.658 99.3057 183.861 98.6084 184.969 97.7197C186.076 96.8174 187.026 95.6689 187.819 94.2744C188.626 92.8799 189.146 91.3555 189.378 89.7012C185.81 88.9629 182.945 87.4385 180.785 85.1279C178.639 82.8037 177.401 80.0762 177.073 76.9453C175.009 77.0547 173.115 77.6904 171.393 78.8525C169.684 80.0146 168.357 81.4912 167.414 83.2822C166.471 85.0596 165.999 86.9258 165.999 88.8809Z" fill="white" fill-opacity="0.7"/>
<path d="M122.177 50V35.7881H116.537V34.1016H130.072V35.7881H124.433V50H122.177ZM137.022 50.2686C135.311 50.2686 133.954 49.7207 132.951 48.625C131.956 47.5293 131.458 46.0433 131.458 44.167C131.458 42.2907 131.956 40.8083 132.951 39.7197C133.954 38.624 135.311 38.0762 137.022 38.0762C138.734 38.0762 140.088 38.624 141.083 39.7197C142.086 40.8083 142.587 42.2907 142.587 44.167C142.587 46.0433 142.086 47.5293 141.083 48.625C140.088 49.7207 138.734 50.2686 137.022 50.2686ZM137.022 48.6787C138.075 48.6787 138.892 48.2848 139.472 47.4971C140.052 46.7093 140.342 45.5993 140.342 44.167C140.342 42.7347 140.052 41.6283 139.472 40.8477C138.892 40.0599 138.075 39.666 137.022 39.666C135.97 39.666 135.153 40.0599 134.573 40.8477C134 41.6283 133.714 42.7347 133.714 44.167C133.714 45.5993 134 46.7093 134.573 47.4971C135.153 48.2848 135.97 48.6787 137.022 48.6787ZM145.896 50V33.0381H148.012V43.9951L152.953 38.334H155.23L150.515 43.7803L156.208 50H153.501L148.012 44.0166V50H145.896ZM159.441 54.2432L161.332 50L156.82 38.334H159.108L162.449 47.1211L166.016 38.334H168.014L161.644 54.2432H159.441ZM174.899 50.2686C173.188 50.2686 171.831 49.7207 170.828 48.625C169.833 47.5293 169.335 46.0433 169.335 44.167C169.335 42.2907 169.833 40.8083 170.828 39.7197C171.831 38.624 173.188 38.0762 174.899 38.0762C176.611 38.0762 177.965 38.624 178.96 39.7197C179.963 40.8083 180.464 42.2907 180.464 44.167C180.464 46.0433 179.963 47.5293 178.96 48.625C177.965 49.7207 176.611 50.2686 174.899 50.2686ZM174.899 48.6787C175.952 48.6787 176.769 48.2848 177.349 47.4971C177.929 46.7093 178.219 45.5993 178.219 44.167C178.219 42.7347 177.929 41.6283 177.349 40.8477C176.769 40.0599 175.952 39.666 174.899 39.666C173.847 39.666 173.03 40.0599 172.45 40.8477C171.877 41.6283 171.591 42.7347 171.591 44.167C171.591 45.5993 171.877 46.7093 172.45 47.4971C173.03 48.2848 173.847 48.6787 174.899 48.6787Z" fill="white"/>
</g>
</svg>
