<svg width="292" height="147" viewBox="0 0 292 147" fill="none" xmlns="http://www.w3.org/2000/svg">
<g opacity="0.7">
<rect x="1" y="1" width="289.5" height="145" fill="#FFCC66" stroke="white" stroke-width="2"/>
<path d="M93.8262 98V96.1416C94.4421 94.7021 95.6882 93.1338 97.5645 91.4365L98.7783 90.3516C100.34 88.9408 101.12 87.5407 101.12 86.1514C101.12 85.2633 100.852 84.5651 100.314 84.0566C99.7845 83.5482 99.0505 83.2939 98.1123 83.2939C97.0166 83.2939 95.7204 83.7201 94.2236 84.5723V82.7031C95.6344 82.0371 97.0381 81.7041 98.4346 81.7041C99.9242 81.7041 101.117 82.1051 102.012 82.9072C102.914 83.7093 103.365 84.7728 103.365 86.0977C103.365 87.0501 103.136 87.8952 102.678 88.6328C102.227 89.3704 101.382 90.2656 100.143 91.3184L99.3262 92.0166C97.6289 93.4561 96.6478 94.8311 96.3828 96.1416H103.29V98H93.8262ZM111.68 98V83.6914H109.166V82.3594L113.807 81.9619V98H111.68ZM122.916 86.4736C122.25 86.4736 121.684 86.2409 121.219 85.7754C120.76 85.3099 120.531 84.7441 120.531 84.0781C120.531 83.4121 120.76 82.8499 121.219 82.3916C121.684 81.9333 122.25 81.7041 122.916 81.7041C123.582 81.7041 124.144 81.9368 124.603 82.4023C125.068 82.8607 125.301 83.4193 125.301 84.0781C125.301 84.7441 125.068 85.3099 124.603 85.7754C124.144 86.2409 123.582 86.4736 122.916 86.4736ZM122.916 85.4102C123.274 85.4102 123.582 85.2777 123.84 85.0127C124.105 84.7477 124.237 84.4398 124.237 84.0889C124.237 83.7308 124.105 83.4193 123.84 83.1543C123.582 82.8893 123.274 82.7568 122.916 82.7568C122.565 82.7568 122.257 82.8893 121.992 83.1543C121.727 83.4193 121.595 83.7308 121.595 84.0889C121.595 84.4398 121.727 84.7477 121.992 85.0127C122.257 85.2777 122.565 85.4102 122.916 85.4102ZM139.942 97.1836C138.374 97.9928 136.662 98.3975 134.808 98.3975C132.337 98.3975 130.428 97.6742 129.082 96.2275C127.736 94.7809 127.062 92.7256 127.062 90.0615C127.062 87.4046 127.746 85.3493 129.114 83.8955C130.489 82.4346 132.426 81.7041 134.926 81.7041C136.344 81.7041 138.009 81.9368 139.921 82.4023V84.5186C137.744 83.7666 136.064 83.3906 134.883 83.3906C133.157 83.3906 131.821 83.9743 130.876 85.1416C129.931 86.3089 129.458 87.9561 129.458 90.083C129.458 92.1169 129.963 93.7174 130.973 94.8848C131.982 96.0521 133.365 96.6357 135.119 96.6357C136.616 96.6357 138.224 96.1738 139.942 95.25V97.1836Z" fill="white" fill-opacity="0.7"/>
<path d="M153 89.1885C153 88.6553 153.185 88.2041 153.554 87.835C153.937 87.4795 154.374 87.3018 154.866 87.3018H159.337C159.843 87.3018 160.26 87.4863 160.588 87.8555C160.93 88.2246 161.101 88.6689 161.101 89.1885C161.101 89.708 160.93 90.1523 160.588 90.5215C160.26 90.877 159.843 91.0547 159.337 91.0547H154.866C154.36 91.0547 153.923 90.8701 153.554 90.501C153.185 90.1318 153 89.6943 153 89.1885ZM159.255 104.344C159.255 103.838 159.426 103.394 159.768 103.011L162.987 99.8936C163.315 99.5518 163.746 99.3809 164.279 99.3809C164.799 99.3809 165.229 99.5449 165.571 99.873C165.927 100.201 166.104 100.618 166.104 101.124C166.104 101.657 165.927 102.122 165.571 102.519L162.454 105.636C161.565 106.333 160.67 106.333 159.768 105.636C159.426 105.267 159.255 104.836 159.255 104.344ZM159.255 74.0537C159.255 73.5479 159.426 73.1035 159.768 72.7207C160.191 72.3652 160.656 72.1875 161.162 72.1875C161.641 72.1875 162.071 72.3652 162.454 72.7207L165.571 75.9404C165.927 76.2686 166.104 76.6992 166.104 77.2324C166.104 77.752 165.927 78.1895 165.571 78.5449C165.229 78.8867 164.799 79.0576 164.279 79.0576C163.746 79.0576 163.315 78.8799 162.987 78.5244L159.768 75.4072C159.426 75.0381 159.255 74.5869 159.255 74.0537ZM164.833 89.1885C164.833 87.1514 165.346 85.2578 166.371 83.5078C167.396 81.7441 168.784 80.3496 170.534 79.3242C172.298 78.2988 174.198 77.7861 176.235 77.7861C177.767 77.7861 179.236 78.0938 180.645 78.709C182.053 79.3105 183.263 80.124 184.274 81.1494C185.3 82.1611 186.113 83.3711 186.715 84.7793C187.316 86.1875 187.617 87.6572 187.617 89.1885C187.617 91.2393 187.104 93.1396 186.079 94.8896C185.067 96.6396 183.687 98.0273 181.937 99.0527C180.187 100.064 178.286 100.57 176.235 100.57C174.185 100.57 172.284 100.064 170.534 99.0527C168.784 98.0273 167.396 96.6396 166.371 94.8896C165.346 93.1396 164.833 91.2393 164.833 89.1885ZM168.545 89.1885C168.545 91.3213 169.29 93.1465 170.78 94.6641C172.284 96.168 174.103 96.9199 176.235 96.9199C178.368 96.9199 180.187 96.168 181.69 94.6641C183.208 93.1465 183.967 91.3213 183.967 89.1885C183.967 87.083 183.208 85.2852 181.69 83.7949C180.187 82.3047 178.368 81.5596 176.235 81.5596C174.116 81.5596 172.305 82.3047 170.801 83.7949C169.297 85.2852 168.545 87.083 168.545 89.1885ZM174.369 106.189C174.369 105.67 174.547 105.232 174.902 104.877C175.271 104.521 175.716 104.344 176.235 104.344C176.769 104.344 177.213 104.521 177.568 104.877C177.924 105.232 178.102 105.67 178.102 106.189V110.537C178.102 111.07 177.917 111.521 177.548 111.891C177.192 112.26 176.755 112.444 176.235 112.444C175.716 112.444 175.271 112.26 174.902 111.891C174.547 111.521 174.369 111.07 174.369 110.537V106.189ZM174.369 72.29V67.8193C174.369 67.3135 174.554 66.876 174.923 66.5068C175.292 66.1377 175.729 65.9531 176.235 65.9531C176.741 65.9531 177.179 66.1377 177.548 66.5068C177.917 66.876 178.102 67.3135 178.102 67.8193V72.29C178.102 72.7959 177.917 73.2197 177.548 73.5615C177.192 73.8896 176.755 74.0537 176.235 74.0537C175.716 74.0537 175.271 73.8896 174.902 73.5615C174.547 73.2197 174.369 72.7959 174.369 72.29ZM186.448 101.124C186.448 100.618 186.612 100.208 186.94 99.8936C187.269 99.5518 187.679 99.3809 188.171 99.3809C188.704 99.3809 189.142 99.5518 189.483 99.8936L192.683 103.011C193.038 103.394 193.216 103.838 193.216 104.344C193.216 104.85 193.038 105.28 192.683 105.636C191.808 106.319 190.933 106.319 190.058 105.636L186.94 102.519C186.612 102.149 186.448 101.685 186.448 101.124ZM186.448 77.2324C186.448 76.6855 186.612 76.2549 186.94 75.9404L190.058 72.7207C190.44 72.3652 190.871 72.1875 191.35 72.1875C191.869 72.1875 192.307 72.3721 192.662 72.7412C193.031 73.1104 193.216 73.5479 193.216 74.0537C193.216 74.6006 193.038 75.0518 192.683 75.4072L189.483 78.5244C189.087 78.8799 188.649 79.0576 188.171 79.0576C187.679 79.0576 187.269 78.8867 186.94 78.5449C186.612 78.1895 186.448 77.752 186.448 77.2324ZM191.903 90.5215C191.562 90.1523 191.391 89.708 191.391 89.1885C191.391 88.6689 191.568 88.2178 191.924 87.835C192.279 87.4795 192.696 87.3018 193.175 87.3018H197.604C198.11 87.3018 198.548 87.4932 198.917 87.876C199.3 88.2451 199.491 88.6826 199.491 89.1885C199.491 89.6943 199.3 90.1318 198.917 90.501C198.548 90.8701 198.11 91.0547 197.604 91.0547H193.175C192.669 91.0547 192.245 90.877 191.903 90.5215Z" fill="white" fill-opacity="0.7"/>
<path d="M138.12 49.1836C136.552 49.9928 134.84 50.3975 132.985 50.3975C130.515 50.3975 128.606 49.6742 127.26 48.2275C125.913 46.7809 125.24 44.7256 125.24 42.0615C125.24 39.4046 125.924 37.3493 127.292 35.8955C128.667 34.4346 130.604 33.7041 133.104 33.7041C134.521 33.7041 136.187 33.9368 138.099 34.4023V36.5186C135.922 35.7666 134.242 35.3906 133.061 35.3906C131.335 35.3906 129.999 35.9743 129.054 37.1416C128.108 38.3089 127.636 39.9561 127.636 42.083C127.636 44.1169 128.141 45.7174 129.15 46.8848C130.16 48.0521 131.542 48.6357 133.297 48.6357C134.794 48.6357 136.401 48.1738 138.12 47.25V49.1836ZM147.487 48.5176C146.22 49.6849 144.999 50.2686 143.824 50.2686C142.857 50.2686 142.055 49.9678 141.418 49.3662C140.781 48.7575 140.462 47.9912 140.462 47.0674C140.462 45.7926 140.995 44.8151 142.062 44.1348C143.137 43.4473 144.676 43.1035 146.682 43.1035H147.176V41.6963C147.176 40.3428 146.47 39.666 145.06 39.666C143.964 39.666 142.768 40.0098 141.472 40.6973V38.9463C142.897 38.3662 144.24 38.0762 145.5 38.0762C146.796 38.0762 147.752 38.3734 148.368 38.9678C148.984 39.555 149.292 40.4645 149.292 41.6963V46.9814C149.292 48.1917 149.664 48.7969 150.409 48.7969C150.502 48.7969 150.638 48.7826 150.817 48.7539L150.968 49.9248C150.488 50.154 149.958 50.2686 149.378 50.2686C148.39 50.2686 147.759 49.6849 147.487 48.5176ZM147.176 47.3682V44.3496L146.499 44.3281C145.325 44.3281 144.376 44.5465 143.652 44.9834C142.936 45.4202 142.578 46.0003 142.578 46.7236C142.578 47.2321 142.757 47.6618 143.115 48.0127C143.473 48.3636 143.91 48.5391 144.426 48.5391C145.307 48.5391 146.223 48.1488 147.176 47.3682ZM153.632 50V38.334H155.748V50H153.632ZM153.632 36.2178V34.1016H155.748V36.2178H153.632ZM159.991 50V38.334H162.107V40.5254C162.945 38.8926 164.163 38.0762 165.76 38.0762C165.975 38.0762 166.2 38.0941 166.437 38.1299V40.1064C166.071 39.9847 165.749 39.9238 165.47 39.9238C164.131 39.9238 163.01 40.7188 162.107 42.3086V50H159.991Z" fill="white"/>
</g>
</svg>
