<svg width="292" height="147" viewBox="0 0 292 147" fill="none" xmlns="http://www.w3.org/2000/svg">
<g opacity="0.7">
<rect x="1" y="1" width="289.5" height="145" fill="#33CCCC" stroke="white" stroke-width="2"/>
<path d="M97.7578 98V83.6914H95.2441V82.3594L99.8848 81.9619V98H97.7578ZM111.68 98V83.6914H109.166V82.3594L113.807 81.9619V98H111.68ZM122.916 86.4736C122.25 86.4736 121.684 86.2409 121.219 85.7754C120.76 85.3099 120.531 84.7441 120.531 84.0781C120.531 83.4121 120.76 82.8499 121.219 82.3916C121.684 81.9333 122.25 81.7041 122.916 81.7041C123.582 81.7041 124.144 81.9368 124.603 82.4023C125.068 82.8607 125.301 83.4193 125.301 84.0781C125.301 84.7441 125.068 85.3099 124.603 85.7754C124.144 86.2409 123.582 86.4736 122.916 86.4736ZM122.916 85.4102C123.274 85.4102 123.582 85.2777 123.84 85.0127C124.105 84.7477 124.237 84.4398 124.237 84.0889C124.237 83.7308 124.105 83.4193 123.84 83.1543C123.582 82.8893 123.274 82.7568 122.916 82.7568C122.565 82.7568 122.257 82.8893 121.992 83.1543C121.727 83.4193 121.595 83.7308 121.595 84.0889C121.595 84.4398 121.727 84.7477 121.992 85.0127C122.257 85.2777 122.565 85.4102 122.916 85.4102ZM139.942 97.1836C138.374 97.9928 136.662 98.3975 134.808 98.3975C132.337 98.3975 130.428 97.6742 129.082 96.2275C127.736 94.7809 127.062 92.7256 127.062 90.0615C127.062 87.4046 127.746 85.3493 129.114 83.8955C130.489 82.4346 132.426 81.7041 134.926 81.7041C136.344 81.7041 138.009 81.9368 139.921 82.4023V84.5186C137.744 83.7666 136.064 83.3906 134.883 83.3906C133.157 83.3906 131.821 83.9743 130.876 85.1416C129.931 86.3089 129.458 87.9561 129.458 90.083C129.458 92.1169 129.963 93.7174 130.973 94.8848C131.982 96.0521 133.365 96.6357 135.119 96.6357C136.616 96.6357 138.224 96.1738 139.942 95.25V97.1836Z" fill="white" fill-opacity="0.7"/>
<path d="M152 94.3564V94.3359V94.3154C152 91.7861 152.786 89.5303 154.358 87.5479C155.944 85.5654 157.947 84.2939 160.367 83.7334C161.037 80.7393 162.568 78.2852 164.961 76.3711C167.367 74.4434 170.122 73.4795 173.226 73.4795C175.399 73.4795 177.382 73.958 179.173 74.915C180.267 73.7529 181.552 72.8438 183.028 72.1875C184.505 71.5176 186.029 71.1826 187.602 71.1826C189.68 71.1826 191.601 71.7021 193.364 72.7412C195.142 73.7666 196.543 75.168 197.568 76.9453C198.607 78.709 199.127 80.6299 199.127 82.708C199.127 85.4014 198.293 87.8008 196.625 89.9062C197.254 91.2461 197.568 92.7158 197.568 94.3154C197.568 96.2432 197.104 98.0342 196.174 99.6885C195.244 101.329 193.973 102.648 192.359 103.646C190.76 104.631 188.996 105.15 187.068 105.205C186.781 105.205 186.638 105.082 186.638 104.836V101.903C186.638 101.644 186.781 101.514 187.068 101.514C188.941 101.418 190.527 100.673 191.826 99.2783C193.139 97.8701 193.795 96.2158 193.795 94.3154C193.795 92.374 193.091 90.7061 191.683 89.3115C190.274 87.917 188.593 87.2197 186.638 87.2197H183.11C182.851 87.2197 182.721 87.0898 182.721 86.8301L182.557 85.5381C182.311 83.1729 181.285 81.1904 179.48 79.5908C177.689 77.9775 175.604 77.1709 173.226 77.1709C170.819 77.1709 168.728 77.9775 166.95 79.5908C165.187 81.1904 164.188 83.1729 163.956 85.5381L163.792 86.8301C163.724 87.0352 163.56 87.1377 163.3 87.1377L162.192 87.2197C160.347 87.4385 158.809 88.2178 157.578 89.5576C156.348 90.8838 155.732 92.4697 155.732 94.3154V94.3975C155.76 94.4248 155.78 94.4385 155.794 94.4385C155.808 96.2979 156.464 97.918 157.763 99.2988C158.378 99.9414 159.048 100.427 159.772 100.755V100.796C160.593 101.22 161.495 101.466 162.479 101.534C162.726 101.534 162.849 101.657 162.849 101.903V104.836C162.849 105.082 162.726 105.205 162.479 105.205C161.413 105.15 160.367 104.938 159.342 104.569C157.688 104.022 156.252 103.127 155.035 101.883C153.832 100.625 152.978 99.1621 152.472 97.4941C152.157 96.4688 152 95.4229 152 94.3564ZM164.038 110.045C164.038 109.977 164.052 109.881 164.079 109.758C164.106 109.635 164.12 109.546 164.12 109.491L164.325 108.22C164.476 107.7 164.776 107.311 165.228 107.051C165.679 106.791 166.171 106.729 166.704 106.866C167.196 107.017 167.565 107.317 167.812 107.769C168.058 108.22 168.105 108.678 167.955 109.143L167.647 110.455C167.429 111.412 166.875 111.891 165.986 111.891C165.918 111.891 165.809 111.877 165.658 111.85C165.521 111.836 165.433 111.829 165.392 111.829C164.94 111.692 164.599 111.453 164.366 111.111C164.147 110.77 164.038 110.414 164.038 110.045ZM165.658 103.585C165.658 103.065 165.829 102.635 166.171 102.293C166.513 101.951 166.943 101.78 167.463 101.78C167.982 101.78 168.413 101.951 168.755 102.293C169.097 102.635 169.268 103.065 169.268 103.585C169.268 104.091 169.097 104.515 168.755 104.856C168.413 105.198 167.982 105.369 167.463 105.369C166.957 105.369 166.54 105.191 166.212 104.836C165.843 104.494 165.658 104.077 165.658 103.585ZM169.247 116.669C169.247 116.587 169.274 116.423 169.329 116.177L169.616 114.885C169.767 114.393 170.067 114.023 170.519 113.777C170.97 113.531 171.428 113.483 171.893 113.634C172.398 113.729 172.781 113.996 173.041 114.434C173.301 114.871 173.362 115.37 173.226 115.931L172.938 117.202C172.706 118.104 172.125 118.556 171.195 118.556C171.086 118.556 170.908 118.528 170.662 118.474C170.184 118.337 169.828 118.091 169.596 117.735C169.363 117.394 169.247 117.038 169.247 116.669ZM170.97 110.312C170.97 109.806 171.141 109.382 171.482 109.04C171.824 108.712 172.255 108.548 172.774 108.548C173.294 108.548 173.725 108.712 174.066 109.04C174.408 109.382 174.579 109.806 174.579 110.312C174.579 110.831 174.408 111.262 174.066 111.604C173.725 111.945 173.294 112.116 172.774 112.116C172.282 112.116 171.858 111.938 171.503 111.583C171.147 111.228 170.97 110.804 170.97 110.312ZM172.323 105.349C172.323 105.144 172.344 104.952 172.385 104.774L172.877 102.806C173.027 102.286 173.328 101.896 173.779 101.637C174.23 101.377 174.695 101.315 175.174 101.452C175.693 101.603 176.076 101.896 176.322 102.334C176.582 102.771 176.637 103.229 176.486 103.708L175.912 105.677C175.734 106.278 175.434 106.688 175.01 106.907C174.586 107.126 174.121 107.167 173.615 107.03C173.178 106.948 172.843 106.729 172.61 106.374C172.392 106.019 172.296 105.677 172.323 105.349ZM178.373 110.045C178.373 109.977 178.38 109.874 178.394 109.737C178.421 109.601 178.435 109.519 178.435 109.491L178.64 108.22C178.79 107.7 179.091 107.311 179.542 107.051C179.993 106.791 180.485 106.729 181.019 106.866C181.511 107.017 181.88 107.317 182.126 107.769C182.386 108.22 182.44 108.678 182.29 109.143L181.982 110.455C181.764 111.412 181.21 111.891 180.321 111.891C180.253 111.891 180.144 111.877 179.993 111.85C179.843 111.836 179.747 111.829 179.706 111.829C179.269 111.692 178.934 111.453 178.701 111.111C178.482 110.77 178.373 110.414 178.373 110.045ZM179.993 103.585C179.993 103.065 180.164 102.635 180.506 102.293C180.848 101.951 181.278 101.78 181.798 101.78C182.317 101.78 182.748 101.951 183.09 102.293C183.432 102.635 183.603 103.065 183.603 103.585C183.603 104.091 183.432 104.515 183.09 104.856C182.748 105.198 182.317 105.369 181.798 105.369C181.278 105.369 180.854 105.191 180.526 104.836C180.171 104.508 179.993 104.091 179.993 103.585ZM182.249 77.1094C184.081 78.7773 185.318 80.9102 185.961 83.5078H186.638C189.659 83.5078 192.223 84.5605 194.328 86.666C195.012 85.4629 195.354 84.1436 195.354 82.708C195.354 80.5615 194.595 78.7432 193.077 77.2529C191.573 75.749 189.748 74.9971 187.602 74.9971C185.496 74.9971 183.712 75.7012 182.249 77.1094Z" fill="white" fill-opacity="0.7"/>
<path d="M120.604 50V34.1016H124.933C126.179 34.1016 127.138 34.2054 127.812 34.4131C128.492 34.6136 129.047 34.9717 129.477 35.4873C130.042 36.1676 130.325 37.0951 130.325 38.2695C130.325 39.9596 129.752 41.2845 128.606 42.2441C127.461 43.2038 125.871 43.6836 123.837 43.6836H122.838V50H120.604ZM122.838 41.9756H123.751C125.09 41.9756 126.125 41.6676 126.855 41.0518C127.586 40.4359 127.951 39.5622 127.951 38.4307C127.951 37.4854 127.661 36.8086 127.081 36.4004C126.508 35.9922 125.556 35.7881 124.224 35.7881H122.838V41.9756ZM138.844 48.5176C137.576 49.6849 136.355 50.2686 135.181 50.2686C134.214 50.2686 133.412 49.9678 132.774 49.3662C132.137 48.7575 131.818 47.9912 131.818 47.0674C131.818 45.7926 132.352 44.8151 133.419 44.1348C134.493 43.4473 136.033 43.1035 138.038 43.1035H138.532V41.6963C138.532 40.3428 137.827 39.666 136.416 39.666C135.32 39.666 134.124 40.0098 132.828 40.6973V38.9463C134.253 38.3662 135.596 38.0762 136.856 38.0762C138.153 38.0762 139.109 38.3734 139.725 38.9678C140.34 39.555 140.648 40.4645 140.648 41.6963V46.9814C140.648 48.1917 141.021 48.7969 141.766 48.7969C141.859 48.7969 141.995 48.7826 142.174 48.7539L142.324 49.9248C141.844 50.154 141.314 50.2686 140.734 50.2686C139.746 50.2686 139.116 49.6849 138.844 48.5176ZM138.532 47.3682V44.3496L137.855 44.3281C136.681 44.3281 135.732 44.5465 135.009 44.9834C134.293 45.4202 133.935 46.0003 133.935 46.7236C133.935 47.2321 134.114 47.6618 134.472 48.0127C134.83 48.3636 135.267 48.5391 135.782 48.5391C136.663 48.5391 137.58 48.1488 138.532 47.3682ZM144.988 50V38.334H147.104V40.5254C147.942 38.8926 149.16 38.0762 150.757 38.0762C150.972 38.0762 151.197 38.0941 151.434 38.1299V40.1064C151.068 39.9847 150.746 39.9238 150.467 39.9238C149.128 39.9238 148.007 40.7188 147.104 42.3086V50H144.988ZM153.99 50V38.334H156.106V50H153.99ZM153.99 36.2178V34.1016H156.106V36.2178H153.99ZM159.92 49.5918V47.6475C161.302 48.335 162.505 48.6787 163.529 48.6787C164.138 48.6787 164.643 48.514 165.044 48.1846C165.445 47.8551 165.646 47.4434 165.646 46.9492C165.646 46.2259 165.083 45.6279 163.959 45.1553L162.724 44.6289C160.897 43.8698 159.984 42.7777 159.984 41.3525C159.984 40.3356 160.342 39.5371 161.059 38.957C161.782 38.3698 162.77 38.0762 164.023 38.0762C164.675 38.0762 165.481 38.1657 166.44 38.3447L166.881 38.4307V40.1924C165.699 39.8415 164.757 39.666 164.056 39.666C163.44 39.666 162.946 39.8021 162.573 40.0742C162.208 40.3392 162.025 40.6973 162.025 41.1484C162.025 41.7858 162.541 42.3229 163.572 42.7598L164.593 43.1895C165.746 43.6764 166.562 44.1921 167.042 44.7363C167.522 45.2734 167.762 45.9466 167.762 46.7559C167.762 47.7799 167.357 48.6214 166.548 49.2803C165.739 49.9391 164.704 50.2686 163.443 50.2686C162.477 50.2686 161.302 50.043 159.92 49.5918Z" fill="white"/>
</g>
</svg>
