<svg width="292" height="147" viewBox="0 0 292 147" fill="none" xmlns="http://www.w3.org/2000/svg">
<rect x="1" y="1" width="289.5" height="145" fill="#C24747" stroke="white" stroke-width="2"/>
<path d="M93.8262 98V96.1416C94.4421 94.7021 95.6882 93.1338 97.5645 91.4365L98.7783 90.3516C100.34 88.9408 101.12 87.5407 101.12 86.1514C101.12 85.2633 100.852 84.5651 100.314 84.0566C99.7845 83.5482 99.0505 83.2939 98.1123 83.2939C97.0166 83.2939 95.7204 83.7201 94.2236 84.5723V82.7031C95.6344 82.0371 97.0381 81.7041 98.4346 81.7041C99.9242 81.7041 101.117 82.1051 102.012 82.9072C102.914 83.7093 103.365 84.7728 103.365 86.0977C103.365 87.0501 103.136 87.8952 102.678 88.6328C102.227 89.3704 101.382 90.2656 100.143 91.3184L99.3262 92.0166C97.6289 93.4561 96.6478 94.8311 96.3828 96.1416H103.29V98H93.8262ZM111.68 98V83.6914H109.166V82.3594L113.807 81.9619V98H111.68ZM122.916 86.4736C122.25 86.4736 121.684 86.2409 121.219 85.7754C120.76 85.3099 120.531 84.7441 120.531 84.0781C120.531 83.4121 120.76 82.8499 121.219 82.3916C121.684 81.9333 122.25 81.7041 122.916 81.7041C123.582 81.7041 124.144 81.9368 124.603 82.4023C125.068 82.8607 125.301 83.4193 125.301 84.0781C125.301 84.7441 125.068 85.3099 124.603 85.7754C124.144 86.2409 123.582 86.4736 122.916 86.4736ZM122.916 85.4102C123.274 85.4102 123.582 85.2777 123.84 85.0127C124.105 84.7477 124.237 84.4398 124.237 84.0889C124.237 83.7308 124.105 83.4193 123.84 83.1543C123.582 82.8893 123.274 82.7568 122.916 82.7568C122.565 82.7568 122.257 82.8893 121.992 83.1543C121.727 83.4193 121.595 83.7308 121.595 84.0889C121.595 84.4398 121.727 84.7477 121.992 85.0127C122.257 85.2777 122.565 85.4102 122.916 85.4102ZM139.942 97.1836C138.374 97.9928 136.662 98.3975 134.808 98.3975C132.337 98.3975 130.428 97.6742 129.082 96.2275C127.736 94.7809 127.062 92.7256 127.062 90.0615C127.062 87.4046 127.746 85.3493 129.114 83.8955C130.489 82.4346 132.426 81.7041 134.926 81.7041C136.344 81.7041 138.009 81.9368 139.921 82.4023V84.5186C137.744 83.7666 136.064 83.3906 134.883 83.3906C133.157 83.3906 131.821 83.9743 130.876 85.1416C129.931 86.3089 129.458 87.9561 129.458 90.083C129.458 92.1169 129.963 93.7174 130.973 94.8848C131.982 96.0521 133.365 96.6357 135.119 96.6357C136.616 96.6357 138.224 96.1738 139.942 95.25V97.1836Z" fill="white" fill-opacity="0.7"/>
<path d="M151 85.7432C151 83.7197 151.629 81.9082 152.887 80.3086C154.158 78.709 155.758 77.6904 157.686 77.2529C158.246 74.8467 159.483 72.8711 161.397 71.3262C163.325 69.7812 165.526 69.0088 168.001 69.0088C170.407 69.0088 172.554 69.7676 174.44 71.2852C176.341 72.7891 177.571 74.7168 178.132 77.0684H178.706C181.112 77.0684 183.163 77.916 184.858 79.6113C186.567 81.293 187.422 83.3369 187.422 85.7432C187.422 85.7568 187.415 85.7842 187.401 85.8252C187.401 85.8662 187.401 85.9072 187.401 85.9482C189.042 87.6982 189.862 89.7764 189.862 92.1826C189.862 93.8369 189.445 95.375 188.611 96.7969C187.791 98.2051 186.677 99.3193 185.269 100.14C183.874 100.96 182.356 101.37 180.716 101.37C178.61 101.37 176.737 100.721 175.097 99.4219C173.47 98.123 172.396 96.4756 171.877 94.4795H159.388C157.05 94.3838 155.067 93.4951 153.44 91.8135C151.813 90.1182 151 88.0947 151 85.7432ZM153.974 85.7432C153.974 87.2744 154.5 88.6074 155.553 89.7422C156.619 90.8633 157.897 91.458 159.388 91.5264H171.795C171.877 91.4717 171.959 91.4443 172.041 91.4443H174.174C174.242 91.4443 174.304 91.4717 174.358 91.5264H179.055C180.545 91.458 181.823 90.8633 182.89 89.7422C183.956 88.6074 184.489 87.2744 184.489 85.7432C184.489 84.1982 183.915 82.8652 182.767 81.7441C181.618 80.6094 180.265 80.042 178.706 80.042H175.876C175.671 80.042 175.568 79.9395 175.568 79.7344L175.425 78.709C175.233 76.8086 174.42 75.2158 172.984 73.9307C171.549 72.6318 169.888 71.9824 168.001 71.9824C166.06 71.9824 164.378 72.625 162.956 73.9102C161.534 75.1953 160.728 76.7949 160.536 78.709L160.413 79.7344C160.413 79.9395 160.297 80.042 160.064 80.042H159.183C157.706 80.2061 156.469 80.8281 155.471 81.9082C154.473 82.9883 153.974 84.2666 153.974 85.7432ZM167.529 105.451C166.982 104.74 166.982 104.029 167.529 103.318L170.011 100.796C170.312 100.536 170.688 100.406 171.139 100.406C171.549 100.406 171.884 100.536 172.144 100.796C172.403 101.056 172.533 101.397 172.533 101.821C172.533 102.259 172.403 102.607 172.144 102.867L169.642 105.451C169.368 105.725 169.013 105.861 168.575 105.861C168.151 105.861 167.803 105.725 167.529 105.451ZM174.953 94.4795C175.418 95.6553 176.17 96.6055 177.209 97.3301C178.262 98.0547 179.431 98.417 180.716 98.417C182.411 98.417 183.847 97.8086 185.022 96.5918C186.212 95.375 186.807 93.9053 186.807 92.1826C186.807 91.335 186.67 90.5693 186.396 89.8857C185.672 91.2256 184.653 92.3125 183.341 93.1465C182.042 93.9805 180.613 94.4248 179.055 94.4795H174.953ZM179.219 105.82C179.219 105.41 179.362 105.068 179.649 104.795C179.95 104.521 180.306 104.385 180.716 104.385C181.112 104.385 181.475 104.535 181.803 104.836C182.076 105.109 182.213 105.438 182.213 105.82V109.409C182.213 109.819 182.062 110.175 181.762 110.476C181.475 110.776 181.126 110.927 180.716 110.927C180.306 110.927 179.95 110.776 179.649 110.476C179.362 110.175 179.219 109.819 179.219 109.409V105.82ZM188.857 101.821C188.857 101.425 188.994 101.09 189.268 100.816C189.555 100.543 189.903 100.406 190.313 100.406C190.737 100.406 191.079 100.536 191.339 100.796L193.923 103.318C194.21 103.633 194.354 103.981 194.354 104.364C194.354 104.774 194.203 105.123 193.902 105.41C193.615 105.711 193.26 105.861 192.836 105.861C192.385 105.861 192.022 105.725 191.749 105.451L189.268 102.867C188.994 102.553 188.857 102.204 188.857 101.821ZM189.268 83.6104C188.994 83.3232 188.857 82.9678 188.857 82.5439C188.857 82.1201 188.994 81.7783 189.268 81.5186L191.749 78.9346C192.05 78.6611 192.412 78.5244 192.836 78.5244C193.246 78.5244 193.608 78.6611 193.923 78.9346C194.21 79.2627 194.354 79.6318 194.354 80.042C194.354 80.4248 194.21 80.7734 193.923 81.0879L191.339 83.6104C191.065 83.8838 190.724 84.0205 190.313 84.0205C189.903 84.0205 189.555 83.8838 189.268 83.6104ZM192.836 92.1826C192.836 91.7725 192.973 91.4238 193.246 91.1367C193.52 90.8496 193.861 90.7061 194.271 90.7061H197.819C198.243 90.7061 198.605 90.8496 198.906 91.1367C199.207 91.4238 199.357 91.7725 199.357 92.1826C199.357 92.6064 199.207 92.9688 198.906 93.2695C198.605 93.5566 198.243 93.7002 197.819 93.7002H194.271C193.861 93.7002 193.52 93.5566 193.246 93.2695C192.973 92.9688 192.836 92.6064 192.836 92.1826Z" fill="white" fill-opacity="0.7"/>
<path d="M117.275 50L111.271 34.1016H113.526L118.446 47.1211L123.194 34.1016H125.171L119.402 50H117.275ZM135.945 49.624C134.527 50.0537 133.313 50.2686 132.304 50.2686C130.578 50.2686 129.174 49.6992 128.093 48.5605C127.011 47.4147 126.471 45.9323 126.471 44.1133C126.471 42.3444 126.947 40.8942 127.899 39.7627C128.859 38.6312 130.084 38.0654 131.573 38.0654C132.984 38.0654 134.073 38.5703 134.839 39.5801C135.612 40.5827 135.999 42.0078 135.999 43.8555L135.988 44.5H128.63C128.938 47.2715 130.295 48.6572 132.701 48.6572C133.582 48.6572 134.663 48.4209 135.945 47.9482V49.624ZM128.727 42.9102H133.872C133.872 40.7402 133.063 39.6553 131.444 39.6553C129.819 39.6553 128.913 40.7402 128.727 42.9102ZM139.662 50V38.334H141.778V40.5254C142.896 38.8926 144.263 38.0762 145.882 38.0762C146.899 38.0762 147.704 38.3984 148.299 39.043C148.9 39.6803 149.201 40.5397 149.201 41.6211V50H147.085V42.3086C147.085 41.4421 146.956 40.8262 146.698 40.4609C146.448 40.0885 146.029 39.9023 145.441 39.9023C144.145 39.9023 142.924 40.751 141.778 42.4482V50H139.662ZM153.326 50V38.334H155.442V50H153.326ZM153.326 36.2178V34.1016H155.442V36.2178H153.326ZM167.785 49.6455C166.417 50.0609 165.236 50.2686 164.24 50.2686C162.665 50.2686 161.358 49.6849 160.319 48.5176C159.281 47.3503 158.762 45.8786 158.762 44.1025C158.762 42.2048 159.274 40.7259 160.298 39.666C161.329 38.6061 162.765 38.0762 164.605 38.0762C165.515 38.0762 166.532 38.2015 167.656 38.4521V40.2246C166.46 39.8737 165.486 39.6982 164.734 39.6982C163.646 39.6982 162.776 40.1064 162.124 40.9229C161.472 41.7321 161.146 42.8135 161.146 44.167C161.146 45.4775 161.483 46.5374 162.156 47.3467C162.829 48.1559 163.71 48.5605 164.799 48.5605C165.766 48.5605 166.761 48.3135 167.785 47.8193V49.6455ZM179.516 49.624C178.098 50.0537 176.884 50.2686 175.874 50.2686C174.148 50.2686 172.744 49.6992 171.663 48.5605C170.582 47.4147 170.041 45.9323 170.041 44.1133C170.041 42.3444 170.517 40.8942 171.47 39.7627C172.429 38.6312 173.654 38.0654 175.144 38.0654C176.554 38.0654 177.643 38.5703 178.409 39.5801C179.183 40.5827 179.569 42.0078 179.569 43.8555L179.559 44.5H172.2C172.508 47.2715 173.865 48.6572 176.271 48.6572C177.152 48.6572 178.234 48.4209 179.516 47.9482V49.624ZM172.297 42.9102H177.442C177.442 40.7402 176.633 39.6553 175.015 39.6553C173.389 39.6553 172.483 40.7402 172.297 42.9102Z" fill="white"/>
</svg>
