<svg width="292" height="147" viewBox="0 0 292 147" fill="none" xmlns="http://www.w3.org/2000/svg">
<g opacity="0.7">
<rect x="1" y="1" width="289.5" height="145" fill="#996699" stroke="white" stroke-width="2"/>
<path d="M90.7578 98V83.6914H88.2441V82.3594L92.8848 81.9619V98H90.7578ZM101.597 98.0645V96.1738C102.649 96.5964 103.652 96.8076 104.604 96.8076C105.65 96.8076 106.47 96.4997 107.064 95.8838C107.666 95.2679 107.967 94.4193 107.967 93.3379C107.967 92.1777 107.544 91.2933 106.699 90.6846C105.854 90.0687 104.633 89.7607 103.036 89.7607C102.664 89.7607 102.273 89.7858 101.865 89.8359V82.1016H109.911V83.9492H103.724V88.1387C105.765 88.1387 107.358 88.6077 108.504 89.5459C109.65 90.484 110.223 91.7839 110.223 93.4453C110.223 94.9922 109.7 96.2061 108.654 97.0869C107.616 97.9606 106.18 98.3975 104.347 98.3975C103.53 98.3975 102.614 98.2865 101.597 98.0645ZM115.916 86.4736C115.25 86.4736 114.684 86.2409 114.219 85.7754C113.76 85.3099 113.531 84.7441 113.531 84.0781C113.531 83.4121 113.76 82.8499 114.219 82.3916C114.684 81.9333 115.25 81.7041 115.916 81.7041C116.582 81.7041 117.144 81.9368 117.603 82.4023C118.068 82.8607 118.301 83.4193 118.301 84.0781C118.301 84.7441 118.068 85.3099 117.603 85.7754C117.144 86.2409 116.582 86.4736 115.916 86.4736ZM115.916 85.4102C116.274 85.4102 116.582 85.2777 116.84 85.0127C117.105 84.7477 117.237 84.4398 117.237 84.0889C117.237 83.7308 117.105 83.4193 116.84 83.1543C116.582 82.8893 116.274 82.7568 115.916 82.7568C115.565 82.7568 115.257 82.8893 114.992 83.1543C114.727 83.4193 114.595 83.7308 114.595 84.0889C114.595 84.4398 114.727 84.7477 114.992 85.0127C115.257 85.2777 115.565 85.4102 115.916 85.4102ZM132.942 97.1836C131.374 97.9928 129.662 98.3975 127.808 98.3975C125.337 98.3975 123.428 97.6742 122.082 96.2275C120.736 94.7809 120.062 92.7256 120.062 90.0615C120.062 87.4046 120.746 85.3493 122.114 83.8955C123.489 82.4346 125.426 81.7041 127.926 81.7041C129.344 81.7041 131.009 81.9368 132.921 82.4023V84.5186C130.744 83.7666 129.064 83.3906 127.883 83.3906C126.157 83.3906 124.821 83.9743 123.876 85.1416C122.931 86.3089 122.458 87.9561 122.458 90.083C122.458 92.1169 122.963 93.7174 123.973 94.8848C124.982 96.0521 126.365 96.6357 128.119 96.6357C129.616 96.6357 131.224 96.1738 132.942 95.25V97.1836Z" fill="white" fill-opacity="0.7"/>
<path d="M148 94.1719C148 96.1406 148.479 97.959 149.436 99.627C150.406 101.295 151.719 102.614 153.373 103.585C155.027 104.542 156.832 105.021 158.787 105.021H182.474C184.429 105.021 186.24 104.542 187.908 103.585C189.576 102.614 190.896 101.295 191.866 99.627C192.837 97.959 193.322 96.1406 193.322 94.1719C193.322 92.7227 193.015 91.2666 192.399 89.8037C194.067 87.7666 194.901 85.3535 194.901 82.5645C194.901 81.0059 194.601 79.5225 193.999 78.1143C193.397 76.6924 192.584 75.4688 191.559 74.4434C190.533 73.418 189.31 72.6045 187.888 72.0029C186.479 71.4014 184.996 71.1006 183.438 71.1006C180.197 71.1006 177.367 72.3721 174.947 74.915C173.252 73.958 171.283 73.4795 169.041 73.4795C165.965 73.4795 163.244 74.4365 160.879 76.3506C158.514 78.251 156.996 80.6914 156.326 83.6719C153.879 84.2324 151.876 85.4902 150.317 87.4453C148.772 89.4004 148 91.6426 148 94.1719ZM151.732 94.1719C151.732 92.3398 152.341 90.7607 153.558 89.4346C154.788 88.1084 156.326 87.3359 158.172 87.1172L159.259 87.0557C159.532 87.0557 159.669 86.9258 159.669 86.666L159.812 85.4766C160.113 83.1113 161.139 81.1357 162.889 79.5498C164.639 77.9502 166.689 77.1504 169.041 77.1504C171.447 77.1504 173.539 77.9502 175.316 79.5498C177.107 81.1494 178.112 83.125 178.331 85.4766L178.495 86.748C178.55 86.9941 178.7 87.1172 178.946 87.1172H182.474C184.401 87.1172 186.062 87.8145 187.457 89.209C188.852 90.6035 189.549 92.2578 189.549 94.1719C189.549 96.1543 188.852 97.8496 187.457 99.2578C186.076 100.652 184.415 101.35 182.474 101.35H158.787C156.873 101.35 155.219 100.646 153.824 99.2373C152.43 97.8154 151.732 96.127 151.732 94.1719ZM166.396 67.3271C166.396 67.8604 166.573 68.3184 166.929 68.7012L168.364 70.0957C168.911 70.5059 169.376 70.6904 169.759 70.6494C170.21 70.6494 170.613 70.4648 170.969 70.0957C171.324 69.7129 171.502 69.2549 171.502 68.7217C171.502 68.1885 171.311 67.7578 170.928 67.4297L169.636 65.9941C169.239 65.6387 168.795 65.4609 168.303 65.4609C167.77 65.4609 167.318 65.6455 166.949 66.0146C166.58 66.3701 166.396 66.8076 166.396 67.3271ZM178.085 77.0068C179.603 75.5439 181.387 74.8125 183.438 74.8125C185.598 74.8125 187.43 75.5645 188.934 77.0684C190.451 78.5723 191.21 80.4043 191.21 82.5645C191.21 83.9316 190.841 85.2715 190.103 86.584C187.983 84.4922 185.44 83.4463 182.474 83.4463H181.776C181.229 81.0674 179.999 78.9209 178.085 77.0068ZM181.633 65.4609C181.633 66.0215 181.804 66.4727 182.146 66.8145C182.487 67.1562 182.918 67.3271 183.438 67.3271C183.998 67.3271 184.449 67.1562 184.791 66.8145C185.133 66.4727 185.304 66.0215 185.304 65.4609V60.9902C185.304 60.4707 185.126 60.04 184.771 59.6982C184.429 59.3564 183.984 59.1855 183.438 59.1855C182.918 59.1855 182.487 59.3564 182.146 59.6982C181.804 60.04 181.633 60.4707 181.633 60.9902V65.4609ZM193.712 70.4854C193.712 71.0459 193.876 71.4971 194.204 71.8389C194.669 72.1943 195.12 72.3721 195.558 72.3721C195.954 72.3721 196.385 72.1943 196.85 71.8389L199.987 68.7012C200.343 68.3047 200.521 67.8398 200.521 67.3066C200.521 66.7871 200.343 66.3496 199.987 65.9941C199.632 65.6387 199.201 65.4609 198.695 65.4609C198.176 65.4609 197.752 65.6387 197.424 65.9941L194.204 69.1318C193.876 69.5283 193.712 69.9795 193.712 70.4854ZM195.988 95.0537C195.633 95.4092 195.455 95.8467 195.455 96.3662C195.455 96.8857 195.64 97.3438 196.009 97.7402L197.424 99.1143C197.752 99.4697 198.176 99.6475 198.695 99.6475C199.215 99.6475 199.646 99.4697 199.987 99.1143C200.343 98.7451 200.521 98.2871 200.521 97.7402C200.521 97.248 200.343 96.8242 199.987 96.4688L198.572 95.0537C198.217 94.6982 197.8 94.5205 197.321 94.5205C196.802 94.5205 196.357 94.6982 195.988 95.0537ZM199.208 81.252C198.839 81.6211 198.654 82.0586 198.654 82.5645C198.654 83.0703 198.846 83.4941 199.229 83.8359C199.584 84.1914 200.028 84.3691 200.562 84.3691H205.032C205.538 84.3691 205.955 84.1982 206.283 83.8564C206.625 83.5146 206.796 83.084 206.796 82.5645C206.796 82.0449 206.625 81.6074 206.283 81.252C205.955 80.8828 205.538 80.6982 205.032 80.6982H200.562C200.042 80.6982 199.591 80.8828 199.208 81.252Z" fill="white" fill-opacity="0.7"/>
<path d="M101.903 50V34.1016H106.028C107.618 34.1016 108.836 34.4023 109.681 35.0039C110.533 35.6055 110.959 36.472 110.959 37.6035C110.959 38.5202 110.676 39.3366 110.11 40.0527C109.545 40.7689 108.739 41.3239 107.693 41.7178C110.293 42.5127 111.593 43.9486 111.593 46.0254C111.593 46.9564 111.306 47.7835 110.733 48.5068C110.297 49.0583 109.77 49.445 109.154 49.667C108.538 49.889 107.683 50 106.587 50H101.903ZM104.138 48.3135H104.6C106.254 48.3135 107.325 48.2096 107.812 48.002C108.743 47.6081 109.208 46.8776 109.208 45.8105C109.208 44.8652 108.785 44.0811 107.94 43.458C107.095 42.8278 106.039 42.5127 104.771 42.5127H104.138V48.3135ZM104.138 41.084H104.857C106.068 41.084 107.002 40.8262 107.661 40.3105C108.32 39.7949 108.649 39.0609 108.649 38.1084C108.649 36.5615 107.439 35.7881 105.019 35.7881H104.138V41.084ZM123.173 49.624C121.755 50.0537 120.541 50.2686 119.531 50.2686C117.805 50.2686 116.402 49.6992 115.32 48.5605C114.239 47.4147 113.698 45.9323 113.698 44.1133C113.698 42.3444 114.174 40.8942 115.127 39.7627C116.087 38.6312 117.311 38.0654 118.801 38.0654C120.212 38.0654 121.3 38.5703 122.066 39.5801C122.84 40.5827 123.227 42.0078 123.227 43.8555L123.216 44.5H115.857C116.165 47.2715 117.522 48.6572 119.929 48.6572C120.81 48.6572 121.891 48.4209 123.173 47.9482V49.624ZM115.954 42.9102H121.1C121.1 40.7402 120.29 39.6553 118.672 39.6553C117.046 39.6553 116.14 40.7402 115.954 42.9102ZM126.89 50V33.0381H129.006V50H126.89ZM133.292 53.8779L133.539 52.041C134.764 52.6211 135.974 52.9111 137.17 52.9111C139.548 52.9111 140.736 51.6471 140.736 49.1191V47.2822C140.371 48.0557 139.848 48.6572 139.168 49.0869C138.495 49.5166 137.743 49.7314 136.912 49.7314C135.501 49.7314 134.384 49.2266 133.561 48.2168C132.737 47.1999 132.325 45.8249 132.325 44.0918C132.325 42.3158 132.794 40.8691 133.732 39.752C134.671 38.6348 135.884 38.0762 137.374 38.0762C138.677 38.0762 139.798 38.6061 140.736 39.666V38.334H142.863V46.8203C142.863 48.6465 142.767 49.9964 142.573 50.8701C142.387 51.751 142.033 52.4707 141.51 53.0293C140.586 54.0104 139.143 54.501 137.181 54.501C135.834 54.501 134.538 54.2933 133.292 53.8779ZM140.736 45.9609V41.1162C139.805 40.1494 138.792 39.666 137.696 39.666C136.722 39.666 135.96 40.0563 135.408 40.8369C134.857 41.6175 134.581 42.6989 134.581 44.0811C134.581 46.6162 135.48 47.8838 137.277 47.8838C138.502 47.8838 139.655 47.2428 140.736 45.9609ZM146.978 50V38.334H149.094V40.5254C149.932 38.8926 151.149 38.0762 152.746 38.0762C152.961 38.0762 153.187 38.0941 153.423 38.1299V40.1064C153.058 39.9847 152.735 39.9238 152.456 39.9238C151.117 39.9238 149.996 40.7188 149.094 42.3086V50H146.978ZM161.995 48.5176C160.728 49.6849 159.507 50.2686 158.332 50.2686C157.365 50.2686 156.563 49.9678 155.926 49.3662C155.288 48.7575 154.97 47.9912 154.97 47.0674C154.97 45.7926 155.503 44.8151 156.57 44.1348C157.645 43.4473 159.184 43.1035 161.189 43.1035H161.684V41.6963C161.684 40.3428 160.978 39.666 159.567 39.666C158.472 39.666 157.276 40.0098 155.979 40.6973V38.9463C157.405 38.3662 158.747 38.0762 160.008 38.0762C161.304 38.0762 162.26 38.3734 162.876 38.9678C163.492 39.555 163.8 40.4645 163.8 41.6963V46.9814C163.8 48.1917 164.172 48.7969 164.917 48.7969C165.01 48.7969 165.146 48.7826 165.325 48.7539L165.476 49.9248C164.996 50.154 164.466 50.2686 163.886 50.2686C162.897 50.2686 162.267 49.6849 161.995 48.5176ZM161.684 47.3682V44.3496L161.007 44.3281C159.832 44.3281 158.883 44.5465 158.16 44.9834C157.444 45.4202 157.086 46.0003 157.086 46.7236C157.086 47.2321 157.265 47.6618 157.623 48.0127C157.981 48.3636 158.418 48.5391 158.934 48.5391C159.814 48.5391 160.731 48.1488 161.684 47.3682ZM175.627 50V47.8086C174.768 49.4486 173.471 50.2686 171.738 50.2686C170.335 50.2686 169.228 49.7565 168.419 48.7324C167.617 47.7083 167.216 46.3083 167.216 44.5322C167.216 42.5915 167.671 41.0303 168.58 39.8486C169.497 38.667 170.7 38.0762 172.189 38.0762C173.572 38.0762 174.717 38.6061 175.627 39.666V33.0381H177.754V50H175.627ZM175.627 41.1162C174.531 40.1494 173.493 39.666 172.512 39.666C171.545 39.666 170.797 40.0706 170.267 40.8799C169.737 41.6891 169.472 42.835 169.472 44.3174C169.472 47.0459 170.374 48.4102 172.179 48.4102C173.353 48.4102 174.503 47.7692 175.627 46.4873V41.1162ZM190.548 49.624C189.13 50.0537 187.916 50.2686 186.906 50.2686C185.18 50.2686 183.777 49.6992 182.695 48.5605C181.614 47.4147 181.073 45.9323 181.073 44.1133C181.073 42.3444 181.549 40.8942 182.502 39.7627C183.462 38.6312 184.686 38.0654 186.176 38.0654C187.587 38.0654 188.675 38.5703 189.441 39.5801C190.215 40.5827 190.602 42.0078 190.602 43.8555L190.591 44.5H183.232C183.54 47.2715 184.897 48.6572 187.304 48.6572C188.185 48.6572 189.266 48.4209 190.548 47.9482V49.624ZM183.329 42.9102H188.475C188.475 40.7402 187.665 39.6553 186.047 39.6553C184.421 39.6553 183.515 40.7402 183.329 42.9102Z" fill="white"/>
</g>
</svg>
